{
  "accessors": [
    {
      "bufferView": 2,
      "componentType": 5126,
      "count": 2455,
      "max": [
        31.909460067749023,
        32.0926628112793,
        13.939140319824219
      ],
      "min": [
        -15.54112434387207,
        -27.325820922851563,
        -13.27399730682373
      ],
      "type": "VEC3"
    },
    {
      "bufferView": 2,
      "byteOffset": 29460,
      "componentType": 5126,
      "count": 2455,
      "max": [
        0.9997787475585938,
        0.9965054988861084,
        0.9976627230644226
      ],
      "min": [
        -0.9996516108512878,
        -0.9994263052940369,
        -0.9996743202209473
      ],
      "type": "VEC3"
    },
    {
      "bufferView": 1,
      "componentType": 5126,
      "count": 2455,
      "max": [
        0.998046875,
        1.0
      ],
      "min": [
        -0.00042533999658189714,
        0.0019216500222682953
      ],
      "type": "VEC2"
    },
    {
      "bufferView": 0,
      "componentType": 5125,
      "count": 6339,
      "type": "SCALAR"
    },
    {
      "bufferView": 2,
      "byteOffset": 58920,
      "componentType": 5126,
      "count": 2308,
      "max": [
        22.706340789794922,
        25.465730667114258,
        18.611234664916992
      ],
      "min": [
        -22.425546646118164,
        -30.46377944946289,
        -22.56252098083496
      ],
      "type": "VEC3"
    },
    {
      "bufferView": 2,
      "byteOffset": 86616,
      "componentType": 5126,
      "count": 2308,
      "max": [
        0.9994354844093323,
        0.9993513822555542,
        0.999970555305481
      ],
      "min": [
        -0.9995129108428955,
        -0.9999945759773254,
        -0.9998784065246582
      ],
      "type": "VEC3"
    },
    {
      "bufferView": 1,
      "byteOffset": 19640,
      "componentType": 5126,
      "count": 2308,
      "max": [
        0.994140625,
        0.9990234375
      ],
      "min": [
        0.0009765599970705807,
        0.0009765599970705807
      ],
      "type": "VEC2"
    },
    {
      "bufferView": 0,
      "byteOffset": 25356,
      "componentType": 5125,
      "count": 10647,
      "type": "SCALAR"
    },
    {
      "bufferView": 2,
      "byteOffset": 114312,
      "componentType": 5126,
      "count": 2706,
      "max": [
        22.76616096496582,
        27.035850524902344,
        18.554410934448242
      ],
      "min": [
        -22.36573028564453,
        -28.89365577697754,
        -24.10369300842285
      ],
      "type": "VEC3"
    },
    {
      "bufferView": 2,
      "byteOffset": 146784,
      "componentType": 5126,
      "count": 2706,
      "max": [
        0.9999212026596069,
        0.9993513822555542,
        0.9999971389770508
      ],
      "min": [
        -0.9997309446334839,
        -0.9999991655349731,
        -0.999900758266449
      ],
      "type": "VEC3"
    },
    {
      "bufferView": 1,
      "byteOffset": 38104,
      "componentType": 5126,
      "count": 2706,
      "max": [
        0.994140625,
        0.9990234375
      ],
      "min": [
        -0.0048790001310408115,
        0.0
      ],
      "type": "VEC2"
    },
    {
      "bufferView": 0,
      "byteOffset": 67944,
      "componentType": 5125,
      "count": 11511,
      "type": "SCALAR"
    },
    {
      "bufferView": 2,
      "byteOffset": 179256,
      "componentType": 5126,
      "count": 5385,
      "max": [
        40.611846923828125,
        28.394800186157227,
        19.180437088012695
      ],
      "min": [
        -40.33965301513672,
        -30.718114852905273,
        -22.676189422607422
      ],
      "type": "VEC3"
    },
    {
      "bufferView": 2,
      "byteOffset": 243876,
      "componentType": 5126,
      "count": 5385,
      "max": [
        0.999406635761261,
        0.99976646900177,
        0.9999926686286926
      ],
      "min": [
        -0.999873161315918,
        -0.9998151063919067,
        -0.9999343156814575
      ],
      "type": "VEC3"
    },
    {
      "bufferView": 1,
      "byteOffset": 59752,
      "componentType": 5126,
      "count": 5385,
      "max": [
        0.9892578125,
        0.9990234375
      ],
      "min": [
        0.0009765599970705807,
        0.0009765599970705807
      ],
      "type": "VEC2"
    },
    {
      "bufferView": 0,
      "byteOffset": 113988,
      "componentType": 5125,
      "count": 14658,
      "type": "SCALAR"
    },
    {
      "bufferView": 2,
      "byteOffset": 308496,
      "componentType": 5126,
      "count": 660,
      "max": [
        22.594518661499023,
        24.276527404785156,
        18.440073013305664
      ],
      "min": [
        -22.001914978027344,
        -31.669872283935547,
        -17.42572784423828
      ],
      "type": "VEC3"
    },
    {
      "bufferView": 2,
      "byteOffset": 316416,
      "componentType": 5126,
      "count": 660,
      "max": [
        0.9994635581970215,
        0.9988859295845032,
        0.999920666217804
      ],
      "min": [
        -0.9996618628501892,
        -0.9998483657836914,
        -0.9999251365661621
      ],
      "type": "VEC3"
    },
    {
      "bufferView": 1,
      "byteOffset": 102832,
      "componentType": 5126,
      "count": 660,
      "max": [
        0.97998046875,
        0.9892578125
      ],
      "min": [
        0.02044677920639515,
        0.012405400164425373
      ],
      "type": "VEC2"
    },
    {
      "bufferView": 0,
      "byteOffset": 172620,
      "componentType": 5125,
      "count": 3408,
      "type": "SCALAR"
    },
    {
      "bufferView": 2,
      "byteOffset": 324336,
      "componentType": 5126,
      "count": 897,
      "max": [
        21.83793067932129,
        27.123987197875977,
        17.850439071655273
      ],
      "min": [
        -20.963665008544922,
        -26.3634033203125,
        -16.963172912597656
      ],
      "type": "VEC3"
    },
    {
      "bufferView": 2,
      "byteOffset": 335100,
      "componentType": 5126,
      "count": 897,
      "max": [
        0.9997456669807434,
        0.9948018789291382,
        0.9998578429222107
      ],
      "min": [
        -0.9999469518661499,
        -0.9984294176101685,
        -0.9995737075805664
      ],
      "type": "VEC3"
    },
    {
      "bufferView": 1,
      "byteOffset": 108112,
      "componentType": 5126,
      "count": 897,
      "max": [
        0.99462890625,
        0.9990234375
      ],
      "min": [
        0.0009765599970705807,
        0.0009765599970705807
      ],
      "type": "VEC2"
    },
    {
      "bufferView": 0,
      "byteOffset": 186252,
      "componentType": 5125,
      "count": 4668,
      "type": "SCALAR"
    },
    {
      "bufferView": 2,
      "byteOffset": 345864,
      "componentType": 5126,
      "count": 1383,
      "max": [
        22.799240112304688,
        31.49079132080078,
        18.003999710083008
      ],
      "min": [
        -22.24492645263672,
        -24.98612403869629,
        -18.73381805419922
      ],
      "type": "VEC3"
    },
    {
      "bufferView": 2,
      "byteOffset": 362460,
      "componentType": 5126,
      "count": 1383,
      "max": [
        0.9994022846221924,
        0.9963241219520569,
        0.9995874166488647
      ],
      "min": [
        -0.9997105598449707,
        -0.994699239730835,
        -0.999656617641449
      ],
      "type": "VEC3"
    },
    {
      "bufferView": 1,
      "byteOffset": 115288,
      "componentType": 5126,
      "count": 1383,
      "max": [
        0.9951171875,
        0.998046875
      ],
      "min": [
        0.6513671875,
        0.65185546875
      ],
      "type": "VEC2"
    },
    {
      "bufferView": 0,
      "byteOffset": 204924,
      "componentType": 5125,
      "count": 3357,
      "type": "SCALAR"
    }
  ],
  "asset": {
    "extras": {
      "author": "00amza (https://sketchfab.com/00amza)",
      "license": "CC-BY-4.0 (http://creativecommons.org/licenses/by/4.0/)",
      "source": "https://sketchfab.com/3d-models/vest-armor-holster-lowpoly-gameready-pack-7c41d35e505c4057abe60f89537408bd",
      "title": "Vest Armor Holster LowPoly GameReady Pack"
    },
    "generator": "Sketchfab-17.14.0",
    "version": "2.0"
  },
  "bufferViews": [
    {
      "buffer": 0,
      "byteLength": 218352,
      "name": "floatBufferViews",
      "target": 34963
    },
    {
      "buffer": 0,
      "byteLength": 126352,
      "byteOffset": 218352,
      "byteStride": 8,
      "name": "floatBufferViews",
      "target": 34962
    },
    {
      "buffer": 0,
      "byteLength": 379056,
      "byteOffset": 344704,
      "byteStride": 12,
      "name": "floatBufferViews",
      "target": 34962
    }
  ],
  "buffers": [
    {
      "byteLength": 723760,
      "uri": "scene.bin"
    }
  ],
  "extensionsUsed": [
    "KHR_materials_specular"
  ],
  "images": [
    {
      "uri": "textures/Holster_baseColor.png"
    },
    {
      "uri": "textures/Vest_baseColor.png"
    },
    {
      "uri": "textures/VestC75_baseColor.png"
    },
    {
      "uri": "textures/Vest_1_Prem_Material_baseColor.png"
    },
    {
      "uri": "textures/Vest_1_T1_Material_baseColor.png"
    },
    {
      "uri": "textures/Vest_1_T2_Material_baseColor.png"
    },
    {
      "uri": "textures/EquipAtlas_0_baseColor.png"
    },
    {
      "uri": "textures/EquipAtlas_0_specularf0.png"
    }
  ],
  "materials": [
    {
      "doubleSided": true,
      "extensions": {
        "KHR_materials_specular": {
          "specularColorFactor": [
            1.0,
            1.0,
            1.0
          ],
          "specularFactor": 0.0
        }
      },
      "name": "Holster",
      "pbrMetallicRoughness": {
        "baseColorTexture": {
          "index": 0
        },
        "metallicFactor": 0.0,
        "roughnessFactor": 0.683772233983162
      }
    },
    {
      "doubleSided": true,
      "extensions": {
        "KHR_materials_specular": {
          "specularColorFactor": [
            1.0,
            1.0,
            1.0
          ],
          "specularFactor": 0.0
        }
      },
      "name": "Vest",
      "pbrMetallicRoughness": {
        "baseColorTexture": {
          "index": 1
        },
        "metallicFactor": 0.0,
        "roughnessFactor": 0.683772233983162
      }
    },
    {
      "doubleSided": true,
      "extensions": {
        "KHR_materials_specular": {
          "specularColorFactor": [
            1.0,
            1.0,
            1.0
          ],
          "specularFactor": 0.0
        }
      },
      "name": "VestC75",
      "pbrMetallicRoughness": {
        "baseColorTexture": {
          "index": 2
        },
        "metallicFactor": 0.0,
        "roughnessFactor": 0.683772233983162
      }
    },
    {
      "doubleSided": true,
      "extensions": {
        "KHR_materials_specular": {
          "specularColorFactor": [
            1.0,
            1.0,
            1.0
          ],
          "specularFactor": 0.0
        }
      },
      "name": "Vest_1_Prem_Material",
      "pbrMetallicRoughness": {
        "baseColorTexture": {
          "index": 3
        },
        "metallicFactor": 0.0
      }
    },
    {
      "doubleSided": true,
      "extensions": {
        "KHR_materials_specular": {
          "specularColorFactor": [
            1.0,
            1.0,
            1.0
          ],
          "specularFactor": 0.0
        }
      },
      "name": "Vest_1_T1_Material",
      "pbrMetallicRoughness": {
        "baseColorTexture": {
          "index": 4
        },
        "metallicFactor": 0.0,
        "roughnessFactor": 0.683772233983162
      }
    },
    {
      "doubleSided": true,
      "extensions": {
        "KHR_materials_specular": {
          "specularColorFactor": [
            1.0,
            1.0,
            1.0
          ],
          "specularFactor": 0.0
        }
      },
      "name": "Vest_1_T2_Material",
      "pbrMetallicRoughness": {
        "baseColorTexture": {
          "index": 5
        },
        "metallicFactor": 0.0,
        "roughnessFactor": 0.683772233983162
      }
    },
    {
      "doubleSided": true,
      "extensions": {
        "KHR_materials_specular": {
          "specularColorFactor": [
            1.0,
            1.0,
            1.0
          ],
          "specularFactor": 0.0,
          "specularTexture": {
            "index": 7
          }
        }
      },
      "name": "EquipAtlas_0",
      "pbrMetallicRoughness": {
        "baseColorTexture": {
          "index": 6
        },
        "metallicFactor": 0.0,
        "roughnessFactor": 0.683772233983162
      }
    }
  ],
  "meshes": [
    {
      "name": "Holster_Holster_0",
      "primitives": [
        {
          "attributes": {
            "NORMAL": 1,
            "POSITION": 0,
            "TEXCOORD_0": 2
          },
          "indices": 3,
          "material": 0,
          "mode": 4
        }
      ]
    },
    {
      "name": "Vest_Vest_0",
      "primitives": [
        {
          "attributes": {
            "NORMAL": 5,
            "POSITION": 4,
            "TEXCOORD_0": 6
          },
          "indices": 7,
          "material": 1,
          "mode": 4
        }
      ]
    },
    {
      "name": "Vest_001_VestC75_0",
      "primitives": [
        {
          "attributes": {
            "NORMAL": 9,
            "POSITION": 8,
            "TEXCOORD_0": 10
          },
          "indices": 11,
          "material": 2,
          "mode": 4
        }
      ]
    },
    {
      "name": "Vest_1_Prem_Vest_1_Prem_Material_0",
      "primitives": [
        {
          "attributes": {
            "NORMAL": 13,
            "POSITION": 12,
            "TEXCOORD_0": 14
          },
          "indices": 15,
          "material": 3,
          "mode": 4
        }
      ]
    },
    {
      "name": "Vest_1_T1_Vest_1_T1_Material_0",
      "primitives": [
        {
          "attributes": {
            "NORMAL": 17,
            "POSITION": 16,
            "TEXCOORD_0": 18
          },
          "indices": 19,
          "material": 4,
          "mode": 4
        }
      ]
    },
    {
      "name": "Vest_1_T2_Vest_1_T2_Material_0",
      "primitives": [
        {
          "attributes": {
            "NORMAL": 21,
            "POSITION": 20,
            "TEXCOORD_0": 22
          },
          "indices": 23,
          "material": 5,
          "mode": 4
        }
      ]
    },
    {
      "name": "Vest_T0_EquipAtlas_0_0",
      "primitives": [
        {
          "attributes": {
            "NORMAL": 25,
            "POSITION": 24,
            "TEXCOORD_0": 26
          },
          "indices": 27,
          "material": 6,
          "mode": 4
        }
      ]
    }
  ],
  "nodes": [
    {
      "children": [
        1
      ],
      "matrix": [
        1.0,
        0.0,
        0.0,
        0.0,
        0.0,
        2.220446049250313e-16,
        -1.0,
        0.0,
        0.0,
        1.0,
        2.220446049250313e-16,
        0.0,
        0.0,
        0.0,
        0.0,
        1.0
      ],
      "name": "Sketchfab_model"
    },
    {
      "children": [
        2
      ],
      "matrix": [
        0.009999999776482582,
        0.0,
        0.0,
        0.0,
        0.0,
        0.0,
        0.009999999776482582,
        0.0,
        0.0,
        -0.009999999776482582,
        0.0,
        0.0,
        0.0,
        0.0,
        0.0,
        1.0
      ],
      "name": "a9ccb2d27e5c4403a3dd7a0faa6fc993.fbx"
    },
    {
      "children": [
        3,
        5,
        7,
        9,
        11,
        13,
        15
      ],
      "name": "RootNode"
    },
    {
      "children": [
        4
      ],
      "matrix": [
        1.0,
        0.0,
        0.0,
        0.0,
        0.0,
        1.0,
        0.0,
        0.0,
        0.0,
        0.0,
        1.0,
        0.0,
        -69.63552856445313,
        -46.78623580932617,
        -3.5340840816497803,
        1.0
      ],
      "name": "Holster"
    },
    {
      "mesh": 0,
      "name": "Holster_Holster_0"
    },
    {
      "children": [
        6
      ],
      "matrix": [
        1.0,
        0.0,
        0.0,
        0.0,
        0.0,
        1.0,
        0.0,
        0.0,
        0.0,
        0.0,
        1.0,
        0.0,
        81.69984436035156,
        35.097930908203125,
        1.2512315511703491,
        1.0
      ],
      "name": "Vest"
    },
    {
      "mesh": 1,
      "name": "Vest_Vest_0"
    },
    {
      "children": [
        8
      ],
      "matrix": [
        1.0,
        0.0,
        0.0,
        0.0,
        0.0,
        1.0,
        0.0,
        0.0,
        0.0,
        0.0,
        1.0,
        0.0,
        -82.75995635986328,
        32.73225402832031,
        2.7521800994873047,
        1.0
      ],
      "name": "Vest_001"
    },
    {
      "mesh": 2,
      "name": "Vest_001_VestC75_0"
    },
    {
      "children": [
        10
      ],
      "matrix": [
        1.0,
        0.0,
        0.0,
        0.0,
        0.0,
        1.0,
        0.0,
        0.0,
        0.0,
        0.0,
        1.0,
        0.0,
        63.056095123291016,
        -35.71772003173828,
        0.8771326541900635,
        1.0
      ],
      "name": "Vest_1_Prem"
    },
    {
      "mesh": 3,
      "name": "Vest_1_Prem_Vest_1_Prem_Material_0"
    },
    {
      "children": [
        12
      ],
      "matrix": [
        1.0,
        0.0,
        0.0,
        0.0,
        0.0,
        1.0,
        0.0,
        0.0,
        0.0,
        0.0,
        1.0,
        0.0,
        30.30099868774414,
        33.16291809082031,
        -0.9476545453071594,
        1.0
      ],
      "name": "Vest_1_T1"
    },
    {
      "mesh": 4,
      "name": "Vest_1_T1_Vest_1_T1_Material_0"
    },
    {
      "children": [
        14
      ],
      "matrix": [
        1.0,
        0.0,
        0.0,
        0.0,
        0.0,
        1.0,
        0.0,
        0.0,
        0.0,
        0.0,
        1.0,
        0.0,
        -22.876352310180664,
        31.11178207397461,
        -0.720792293548584,
        1.0
      ],
      "name": "Vest_1_T2"
    },
    {
      "mesh": 5,
      "name": "Vest_1_T2_Vest_1_T2_Material_0"
    },
    {
      "children": [
        16
      ],
      "matrix": [
        1.0,
        0.0,
        0.0,
        0.0,
        0.0,
        1.0,
        0.0,
        0.0,
        0.0,
        0.0,
        1.0,
        0.0,
        -6.1533660888671875,
        -43.2326774597168,
        0.3219883441925049,
        1.0
      ],
      "name": "Vest_T0"
    },
    {
      "mesh": 6,
      "name": "Vest_T0_EquipAtlas_0_0"
    }
  ],
  "samplers": [
    {
      "magFilter": 9729,
      "minFilter": 9987,
      "wrapS": 10497,
      "wrapT": 10497
    }
  ],
  "scene": 0,
  "scenes": [
    {
      "name": "Sketchfab_Scene",
      "nodes": [
        0
      ]
    }
  ],
  "textures": [
    {
      "sampler": 0,
      "source": 0
    },
    {
      "sampler": 0,
      "source": 1
    },
    {
      "sampler": 0,
      "source": 2
    },
    {
      "sampler": 0,
      "source": 3
    },
    {
      "sampler": 0,
      "source": 4
    },
    {
      "sampler": 0,
      "source": 5
    },
    {
      "sampler": 0,
      "source": 6
    },
    {
      "sampler": 0,
      "source": 7
    }
  ]
}
