{
  "accessors": [
    {
      "bufferView": 1,
      "componentType": 5126,
      "count": 454,
      "max": [
        0.03998973220586777,
        0.11168448626995087,
        0.03998973220586777
      ],
      "min": [
        -0.03998973220586777,
        -0.1883154958486557,
        -0.03998973220586777
      ],
      "type": "VEC3"
    },
    {
      "bufferView": 1,
      "byteOffset": 5448,
      "componentType": 5126,
      "count": 454,
      "max": [
        0.9238796234130859,
        1.0,
        0.9238796234130859
      ],
      "min": [
        -0.9238796234130859,
        -1.0,
        -0.9238796234130859
      ],
      "type": "VEC3"
    },
    {
      "bufferView": 0,
      "componentType": 5125,
      "count": 696,
      "type": "SCALAR"
    },
    {
      "bufferView": 1,
      "byteOffset": 10896,
      "componentType": 5126,
      "count": 136,
      "max": [
        0.023249996826052666,
        0.1883154958486557,
        0.023249996826052666
      ],
      "min": [
        -0.023249996826052666,
        0.11168448626995087,
        -0.023249996826052666
      ],
      "type": "VEC3"
    },
    {
      "bufferView": 1,
      "byteOffset": 12528,
      "componentType": 5126,
      "count": 136,
      "max": [
        0.9238793849945068,
        1.0,
        0.9238795042037964
      ],
      "min": [
        -0.9238793849945068,
        0.0,
        -0.9238795042037964
      ],
      "type": "VEC3"
    },
    {
      "bufferView": 0,
      "byteOffset": 2784,
      "componentType": 5125,
      "count": 210,
      "type": "SCALAR"
    },
    {
      "bufferView": 1,
      "byteOffset": 14160,
      "componentType": 5126,
      "count": 512,
      "max": [
        0.03998973220586777,
        0.14999999105930328,
        0.03998973220586777
      ],
      "min": [
        -0.03998973220586777,
        -0.14999999105930328,
        -0.03998973220586777
      ],
      "type": "VEC3"
    },
    {
      "bufferView": 1,
      "byteOffset": 20304,
      "componentType": 5126,
      "count": 512,
      "max": [
        0.9238795638084412,
        1.0,
        0.9238796234130859
      ],
      "min": [
        -0.9238795638084412,
        -1.0,
        -0.9238796234130859
      ],
      "type": "VEC3"
    },
    {
      "bufferView": 0,
      "byteOffset": 3624,
      "componentType": 5125,
      "count": 768,
      "type": "SCALAR"
    },
    {
      "bufferView": 1,
      "byteOffset": 26448,
      "componentType": 5126,
      "count": 1828,
      "max": [
        0.2570263743400574,
        0.7033252716064453,
        0.09736322611570358
      ],
      "min": [
        -0.2570437788963318,
        -0.4173925518989563,
        -0.09736322611570358
      ],
      "type": "VEC3"
    },
    {
      "bufferView": 1,
      "byteOffset": 48384,
      "componentType": 5126,
      "count": 1828,
      "max": [
        1.0,
        1.0,
        1.0
      ],
      "min": [
        -1.0,
        -1.0,
        -1.0
      ],
      "type": "VEC3"
    },
    {
      "bufferView": 0,
      "byteOffset": 6696,
      "componentType": 5125,
      "count": 2616,
      "type": "SCALAR"
    },
    {
      "bufferView": 1,
      "byteOffset": 70320,
      "componentType": 5126,
      "count": 957,
      "max": [
        0.3959229588508606,
        0.6900332570075989,
        0.12078224867582321
      ],
      "min": [
        -0.2328633964061737,
        -0.8494731783866882,
        -0.12078224867582321
      ],
      "type": "VEC3"
    },
    {
      "bufferView": 1,
      "byteOffset": 81804,
      "componentType": 5126,
      "count": 957,
      "max": [
        1.0,
        1.0,
        1.0
      ],
      "min": [
        -1.0,
        -1.0,
        -1.0
      ],
      "type": "VEC3"
    },
    {
      "bufferView": 0,
      "byteOffset": 17160,
      "componentType": 5125,
      "count": 1422,
      "type": "SCALAR"
    },
    {
      "bufferView": 1,
      "byteOffset": 93288,
      "componentType": 5126,
      "count": 1810,
      "max": [
        0.2570263743400574,
        0.7033252716064453,
        0.09736322611570358
      ],
      "min": [
        -0.2570437788963318,
        -0.4173925518989563,
        -0.09736322611570358
      ],
      "type": "VEC3"
    },
    {
      "bufferView": 1,
      "byteOffset": 115008,
      "componentType": 5126,
      "count": 1810,
      "max": [
        1.0,
        1.0,
        1.0
      ],
      "min": [
        -1.0,
        -1.0,
        -1.0
      ],
      "type": "VEC3"
    },
    {
      "bufferView": 0,
      "byteOffset": 22848,
      "componentType": 5125,
      "count": 2616,
      "type": "SCALAR"
    },
    {
      "bufferView": 1,
      "byteOffset": 136728,
      "componentType": 5126,
      "count": 722,
      "max": [
        0.3959229588508606,
        -0.3446134328842163,
        0.12078224867582321
      ],
      "min": [
        -0.17987558245658875,
        -0.8494731783866882,
        -0.12078224867582321
      ],
      "type": "VEC3"
    },
    {
      "bufferView": 1,
      "byteOffset": 145392,
      "componentType": 5126,
      "count": 722,
      "max": [
        0.9856688976287842,
        0.998471736907959,
        1.0
      ],
      "min": [
        -0.999646782875061,
        -0.9985783696174622,
        -1.0
      ],
      "type": "VEC3"
    },
    {
      "bufferView": 0,
      "byteOffset": 33312,
      "componentType": 5125,
      "count": 1122,
      "type": "SCALAR"
    },
    {
      "bufferView": 1,
      "byteOffset": 154056,
      "componentType": 5126,
      "count": 1384,
      "max": [
        0.0865735411643982,
        0.694077730178833,
        0.07185659557580948
      ],
      "min": [
        -0.21342645585536957,
        0.5341187715530396,
        -0.07185659557580948
      ],
      "type": "VEC3"
    },
    {
      "bufferView": 1,
      "byteOffset": 170664,
      "componentType": 5126,
      "count": 1384,
      "max": [
        1.0,
        0.9238805174827576,
        0.9238801002502441
      ],
      "min": [
        -1.0,
        -0.9238795638084412,
        -0.9238801002502441
      ],
      "type": "VEC3"
    },
    {
      "bufferView": 0,
      "byteOffset": 37800,
      "componentType": 5125,
      "count": 2088,
      "type": "SCALAR"
    },
    {
      "bufferView": 1,
      "byteOffset": 187272,
      "componentType": 5126,
      "count": 420,
      "max": [
        0.16320453584194183,
        0.6773380637168884,
        0.05511682108044624
      ],
      "min": [
        0.0865735337138176,
        0.5508585572242737,
        -0.05511689931154251
      ],
      "type": "VEC3"
    },
    {
      "bufferView": 1,
      "byteOffset": 192312,
      "componentType": 5126,
      "count": 420,
      "max": [
        1.0,
        0.9238794445991516,
        0.9238799214363098
      ],
      "min": [
        -2.5548240500938846e-06,
        -0.9238794445991516,
        -0.9238800406455994
      ],
      "type": "VEC3"
    },
    {
      "bufferView": 0,
      "byteOffset": 46152,
      "componentType": 5125,
      "count": 630,
      "type": "SCALAR"
    },
    {
      "bufferView": 1,
      "byteOffset": 197352,
      "componentType": 5126,
      "count": 1558,
      "max": [
        0.9158042669296265,
        0.3332430124282837,
        0.1364671140909195
      ],
      "min": [
        -1.0217317342758179,
        -0.1364671140909195,
        -0.1364671140909195
      ],
      "type": "VEC3"
    },
    {
      "bufferView": 1,
      "byteOffset": 216048,
      "componentType": 5126,
      "count": 1558,
      "max": [
        1.0,
        0.9240314364433289,
        0.9238973259925842
      ],
      "min": [
        -1.0,
        -0.9238971471786499,
        -0.9240354299545288
      ],
      "type": "VEC3"
    },
    {
      "bufferView": 0,
      "byteOffset": 48672,
      "componentType": 5125,
      "count": 2322,
      "type": "SCALAR"
    },
    {
      "bufferView": 1,
      "byteOffset": 234744,
      "componentType": 5126,
      "count": 982,
      "max": [
        0.5275906324386597,
        0.3388191759586334,
        0.09206240624189377
      ],
      "min": [
        0.19515842199325562,
        -0.10784593969583511,
        -0.0920623317360878
      ],
      "type": "VEC3"
    },
    {
      "bufferView": 1,
      "byteOffset": 246528,
      "componentType": 5126,
      "count": 982,
      "max": [
        1.0,
        0.9420590996742249,
        1.0
      ],
      "min": [
        -1.0,
        -0.9238808155059814,
        -1.0
      ],
      "type": "VEC3"
    },
    {
      "bufferView": 0,
      "byteOffset": 57960,
      "componentType": 5125,
      "count": 1434,
      "type": "SCALAR"
    },
    {
      "bufferView": 1,
      "byteOffset": 258312,
      "componentType": 5126,
      "count": 1104,
      "max": [
        0.23434147238731384,
        0.07363530993461609,
        0.07363530248403549
      ],
      "min": [
        -0.3839149475097656,
        -0.07363531738519669,
        -0.07363531738519669
      ],
      "type": "VEC3"
    },
    {
      "bufferView": 1,
      "byteOffset": 271560,
      "componentType": 5126,
      "count": 1104,
      "max": [
        1.0,
        0.9238953590393066,
        0.9238953590393066
      ],
      "min": [
        -1.0,
        -0.923879861831665,
        -0.9238796830177307
      ],
      "type": "VEC3"
    },
    {
      "bufferView": 0,
      "byteOffset": 63696,
      "componentType": 5125,
      "count": 1488,
      "type": "SCALAR"
    },
    {
      "bufferView": 1,
      "byteOffset": 284808,
      "componentType": 5126,
      "count": 7342,
      "max": [
        5.701397895812988,
        2.7159664630889893,
        0.7832072973251343
      ],
      "min": [
        -5.72599458694458,
        -2.7159664630889893,
        -0.6607431173324585
      ],
      "type": "VEC3"
    },
    {
      "bufferView": 1,
      "byteOffset": 372912,
      "componentType": 5126,
      "count": 7342,
      "max": [
        1.0,
        1.0,
        1.0
      ],
      "min": [
        -1.0,
        -1.0,
        -1.0
      ],
      "type": "VEC3"
    },
    {
      "bufferView": 0,
      "byteOffset": 69648,
      "componentType": 5125,
      "count": 10605,
      "type": "SCALAR"
    },
    {
      "bufferView": 1,
      "byteOffset": 461016,
      "componentType": 5126,
      "count": 3911,
      "max": [
        4.785066604614258,
        2.7339422702789307,
        0.7602692246437073
      ],
      "min": [
        -5.402159214019775,
        -0.5612819194793701,
        -0.592296838760376
      ],
      "type": "VEC3"
    },
    {
      "bufferView": 1,
      "byteOffset": 507948,
      "componentType": 5126,
      "count": 3911,
      "max": [
        1.0,
        1.0,
        1.0
      ],
      "min": [
        -1.0,
        -1.0,
        -1.0
      ],
      "type": "VEC3"
    },
    {
      "bufferView": 0,
      "byteOffset": 112068,
      "componentType": 5125,
      "count": 5790,
      "type": "SCALAR"
    },
    {
      "bufferView": 1,
      "byteOffset": 554880,
      "componentType": 5126,
      "count": 3088,
      "max": [
        1.5916111469268799,
        0.2576502561569214,
        0.09752305597066879
      ],
      "min": [
        -0.2744377851486206,
        -0.14731688797473907,
        -0.11635097116231918
      ],
      "type": "VEC3"
    },
    {
      "bufferView": 1,
      "byteOffset": 591936,
      "componentType": 5126,
      "count": 3088,
      "max": [
        1.0,
        1.0,
        1.0
      ],
      "min": [
        -1.0,
        -1.0,
        -1.0
      ],
      "type": "VEC3"
    },
    {
      "bufferView": 0,
      "byteOffset": 135228,
      "componentType": 5125,
      "count": 4458,
      "type": "SCALAR"
    },
    {
      "bufferView": 1,
      "byteOffset": 628992,
      "componentType": 5126,
      "count": 488,
      "max": [
        7.917937755584717,
        1.114134669303894,
        2.3029897212982178
      ],
      "min": [
        -7.622873783111572,
        -1.114134669303894,
        -2.3029897212982178
      ],
      "type": "VEC3"
    },
    {
      "bufferView": 1,
      "byteOffset": 634848,
      "componentType": 5126,
      "count": 488,
      "max": [
        1.0,
        1.0,
        1.0
      ],
      "min": [
        -1.0,
        -1.0,
        -1.0
      ],
      "type": "VEC3"
    },
    {
      "bufferView": 0,
      "byteOffset": 153060,
      "componentType": 5125,
      "count": 780,
      "type": "SCALAR"
    },
    {
      "bufferView": 1,
      "byteOffset": 640704,
      "componentType": 5126,
      "count": 1290,
      "max": [
        0.1523442268371582,
        0.15223315358161926,
        0.10935646295547485
      ],
      "min": [
        -0.9018751382827759,
        -0.1522333323955536,
        -0.10935646295547485
      ],
      "type": "VEC3"
    },
    {
      "bufferView": 1,
      "byteOffset": 656184,
      "componentType": 5126,
      "count": 1290,
      "max": [
        1.0,
        1.0,
        1.0
      ],
      "min": [
        -1.0,
        -1.0,
        -1.0
      ],
      "type": "VEC3"
    },
    {
      "bufferView": 0,
      "byteOffset": 156180,
      "componentType": 5125,
      "count": 1914,
      "type": "SCALAR"
    },
    {
      "bufferView": 1,
      "byteOffset": 671664,
      "componentType": 5126,
      "count": 764,
      "max": [
        0.07255475223064423,
        0.15637779235839844,
        0.12278366088867188
      ],
      "min": [
        -0.8889756202697754,
        -0.13154175877571106,
        -0.10935641825199127
      ],
      "type": "VEC3"
    },
    {
      "bufferView": 1,
      "byteOffset": 680832,
      "componentType": 5126,
      "count": 764,
      "max": [
        1.0,
        1.0,
        1.0
      ],
      "min": [
        -0.9562227129936218,
        -0.9238820672035217,
        -1.0
      ],
      "type": "VEC3"
    },
    {
      "bufferView": 0,
      "byteOffset": 163836,
      "componentType": 5125,
      "count": 1158,
      "type": "SCALAR"
    },
    {
      "bufferView": 1,
      "byteOffset": 690000,
      "componentType": 5126,
      "count": 717,
      "max": [
        2.593994617462158,
        0.4117443859577179,
        0.20802825689315796
      ],
      "min": [
        -0.778241753578186,
        -0.451688677072525,
        -0.20802825689315796
      ],
      "type": "VEC3"
    },
    {
      "bufferView": 1,
      "byteOffset": 698604,
      "componentType": 5126,
      "count": 717,
      "max": [
        1.0,
        1.0,
        1.0
      ],
      "min": [
        -1.0,
        -1.0,
        -1.0
      ],
      "type": "VEC3"
    },
    {
      "bufferView": 0,
      "byteOffset": 168468,
      "componentType": 5125,
      "count": 1068,
      "type": "SCALAR"
    },
    {
      "bufferView": 1,
      "byteOffset": 707208,
      "componentType": 5126,
      "count": 594,
      "max": [
        -0.6654038429260254,
        0.41641128063201904,
        0.21350836753845215
      ],
      "min": [
        -0.9164690971374512,
        -0.7028449773788452,
        -0.21350833773612976
      ],
      "type": "VEC3"
    },
    {
      "bufferView": 1,
      "byteOffset": 714336,
      "componentType": 5126,
      "count": 594,
      "max": [
        1.0,
        1.0,
        0.999999463558197
      ],
      "min": [
        -0.9997345209121704,
        -1.0,
        -0.9999992251396179
      ],
      "type": "VEC3"
    },
    {
      "bufferView": 0,
      "byteOffset": 172740,
      "componentType": 5125,
      "count": 870,
      "type": "SCALAR"
    },
    {
      "bufferView": 1,
      "byteOffset": 721464,
      "componentType": 5126,
      "count": 498,
      "max": [
        0.050578050315380096,
        0.09801309555768967,
        0.24252143502235413
      ],
      "min": [
        -0.35048678517341614,
        -0.05032721534371376,
        -0.2545076906681061
      ],
      "type": "VEC3"
    },
    {
      "bufferView": 1,
      "byteOffset": 727440,
      "componentType": 5126,
      "count": 498,
      "max": [
        0.9999989867210388,
        0.9999990463256836,
        1.0
      ],
      "min": [
        -0.9999990463256836,
        -0.9999989867210388,
        -1.0
      ],
      "type": "VEC3"
    },
    {
      "bufferView": 0,
      "byteOffset": 176220,
      "componentType": 5125,
      "count": 714,
      "type": "SCALAR"
    },
    {
      "bufferView": 1,
      "byteOffset": 733416,
      "componentType": 5126,
      "count": 678,
      "max": [
        0.21185623109340668,
        0.03749367594718933,
        0.18451593816280365
      ],
      "min": [
        -0.03749360144138336,
        -0.03749360889196396,
        -0.1847403198480606
      ],
      "type": "VEC3"
    },
    {
      "bufferView": 1,
      "byteOffset": 741552,
      "componentType": 5126,
      "count": 678,
      "max": [
        0.9311589002609253,
        1.0,
        1.0
      ],
      "min": [
        -1.0,
        -1.0,
        -1.0
      ],
      "type": "VEC3"
    },
    {
      "bufferView": 0,
      "byteOffset": 179076,
      "componentType": 5125,
      "count": 1002,
      "type": "SCALAR"
    },
    {
      "bufferView": 1,
      "byteOffset": 749688,
      "componentType": 5126,
      "count": 599,
      "max": [
        0.10037711262702942,
        0.0896301195025444,
        0.1085038110613823
      ],
      "min": [
        -0.13774535059928894,
        -0.28208982944488525,
        -0.04413794353604317
      ],
      "type": "VEC3"
    },
    {
      "bufferView": 1,
      "byteOffset": 756876,
      "componentType": 5126,
      "count": 599,
      "max": [
        0.9995734691619873,
        0.9994267821311951,
        1.0
      ],
      "min": [
        -0.9998081922531128,
        -0.9999843239784241,
        -1.0
      ],
      "type": "VEC3"
    },
    {
      "bufferView": 0,
      "byteOffset": 183084,
      "componentType": 5125,
      "count": 855,
      "type": "SCALAR"
    },
    {
      "bufferView": 1,
      "byteOffset": 764064,
      "componentType": 5126,
      "count": 1562,
      "max": [
        0.1614464372396469,
        0.065999336540699,
        0.1563672423362732
      ],
      "min": [
        -0.319191038608551,
        -0.12679839134216309,
        -0.1739964336156845
      ],
      "type": "VEC3"
    },
    {
      "bufferView": 1,
      "byteOffset": 782808,
      "componentType": 5126,
      "count": 1562,
      "max": [
        1.0,
        1.0,
        1.0
      ],
      "min": [
        -1.0,
        -1.0,
        -1.0
      ],
      "type": "VEC3"
    },
    {
      "bufferView": 0,
      "byteOffset": 186504,
      "componentType": 5125,
      "count": 2226,
      "type": "SCALAR"
    },
    {
      "bufferView": 1,
      "byteOffset": 801552,
      "componentType": 5126,
      "count": 1582,
      "max": [
        0.1614464372396469,
        0.10355772823095322,
        0.22379270195960999
      ],
      "min": [
        -0.34570011496543884,
        -0.12679839134216309,
        -0.1739964336156845
      ],
      "type": "VEC3"
    },
    {
      "bufferView": 1,
      "byteOffset": 820536,
      "componentType": 5126,
      "count": 1582,
      "max": [
        1.0,
        1.0,
        1.0
      ],
      "min": [
        -1.0,
        -1.0,
        -1.0
      ],
      "type": "VEC3"
    },
    {
      "bufferView": 0,
      "byteOffset": 195408,
      "componentType": 5125,
      "count": 2274,
      "type": "SCALAR"
    }
  ],
  "asset": {
    "extras": {
      "author": "billyebarro (https://sketchfab.com/billyebarro)",
      "license": "CC-BY-4.0 (http://creativecommons.org/licenses/by/4.0/)",
      "source": "https://sketchfab.com/3d-models/low-poly-hk-mp7-a1-d80532fa48754163b994e74a8bb0019d",
      "title": "Low-poly HK MP7 A1"
    },
    "generator": "Sketchfab-16.65.0",
    "version": "2.0"
  },
  "bufferViews": [
    {
      "buffer": 0,
      "byteLength": 204504,
      "name": "floatBufferViews",
      "target": 34963
    },
    {
      "buffer": 0,
      "byteLength": 839520,
      "byteOffset": 204504,
      "byteStride": 12,
      "name": "floatBufferViews",
      "target": 34962
    }
  ],
  "buffers": [
    {
      "byteLength": 1044024,
      "uri": "scene.bin"
    }
  ],
  "materials": [
    {
      "doubleSided": true,
      "name": "brass",
      "pbrMetallicRoughness": {
        "baseColorFactor": [
          0.445201,
          0.366253,
          0.0528607,
          1.0
        ],
        "roughnessFactor": 0.3
      }
    },
    {
      "doubleSided": true,
      "name": "copper",
      "pbrMetallicRoughness": {
        "baseColorFactor": [
          0.479318,
          0.171441,
          0.0331048,
          1.0
        ],
        "roughnessFactor": 0.3
      }
    },
    {
      "doubleSided": true,
      "name": "h_190",
      "pbrMetallicRoughness": {
        "baseColorFactor": [
          0.0109601,
          0.0109601,
          0.0109601,
          1.0
        ],
        "metallicFactor": 0.5,
        "roughnessFactor": 0.5
      }
    },
    {
      "doubleSided": true,
      "name": "polymer",
      "pbrMetallicRoughness": {
        "baseColorFactor": [
          0.0202885,
          0.0202885,
          0.0202886,
          1.0
        ],
        "metallicFactor": 0.0,
        "roughnessFactor": 0.7
      }
    },
    {
      "doubleSided": true,
      "name": "stell",
      "pbrMetallicRoughness": {
        "baseColorFactor": [
          0.203312,
          0.203312,
          0.203312,
          1.0
        ],
        "metallicFactor": 0.5,
        "roughnessFactor": 0.5
      }
    }
  ],
  "meshes": [
    {
      "name": "Object_0",
      "primitives": [
        {
          "attributes": {
            "NORMAL": 1,
            "POSITION": 0
          },
          "indices": 2,
          "material": 0,
          "mode": 4
        }
      ]
    },
    {
      "name": "Object_1",
      "primitives": [
        {
          "attributes": {
            "NORMAL": 4,
            "POSITION": 3
          },
          "indices": 5,
          "material": 1,
          "mode": 4
        }
      ]
    },
    {
      "name": "Object_2",
      "primitives": [
        {
          "attributes": {
            "NORMAL": 7,
            "POSITION": 6
          },
          "indices": 8,
          "material": 0,
          "mode": 4
        }
      ]
    },
    {
      "name": "Object_3",
      "primitives": [
        {
          "attributes": {
            "NORMAL": 10,
            "POSITION": 9
          },
          "indices": 11,
          "material": 2,
          "mode": 4
        }
      ]
    },
    {
      "name": "Object_4",
      "primitives": [
        {
          "attributes": {
            "NORMAL": 13,
            "POSITION": 12
          },
          "indices": 14,
          "material": 3,
          "mode": 4
        }
      ]
    },
    {
      "name": "Object_5",
      "primitives": [
        {
          "attributes": {
            "NORMAL": 16,
            "POSITION": 15
          },
          "indices": 17,
          "material": 2,
          "mode": 4
        }
      ]
    },
    {
      "name": "Object_6",
      "primitives": [
        {
          "attributes": {
            "NORMAL": 19,
            "POSITION": 18
          },
          "indices": 20,
          "material": 3,
          "mode": 4
        }
      ]
    },
    {
      "name": "Object_7",
      "primitives": [
        {
          "attributes": {
            "NORMAL": 22,
            "POSITION": 21
          },
          "indices": 23,
          "material": 0,
          "mode": 4
        }
      ]
    },
    {
      "name": "Object_8",
      "primitives": [
        {
          "attributes": {
            "NORMAL": 25,
            "POSITION": 24
          },
          "indices": 26,
          "material": 1,
          "mode": 4
        }
      ]
    },
    {
      "name": "Object_9",
      "primitives": [
        {
          "attributes": {
            "NORMAL": 28,
            "POSITION": 27
          },
          "indices": 29,
          "material": 4,
          "mode": 4
        }
      ]
    },
    {
      "name": "Object_10",
      "primitives": [
        {
          "attributes": {
            "NORMAL": 31,
            "POSITION": 30
          },
          "indices": 32,
          "material": 2,
          "mode": 4
        }
      ]
    },
    {
      "name": "Object_11",
      "primitives": [
        {
          "attributes": {
            "NORMAL": 34,
            "POSITION": 33
          },
          "indices": 35,
          "material": 2,
          "mode": 4
        }
      ]
    },
    {
      "name": "Object_12",
      "primitives": [
        {
          "attributes": {
            "NORMAL": 37,
            "POSITION": 36
          },
          "indices": 38,
          "material": 3,
          "mode": 4
        }
      ]
    },
    {
      "name": "Object_13",
      "primitives": [
        {
          "attributes": {
            "NORMAL": 40,
            "POSITION": 39
          },
          "indices": 41,
          "material": 2,
          "mode": 4
        }
      ]
    },
    {
      "name": "Object_14",
      "primitives": [
        {
          "attributes": {
            "NORMAL": 43,
            "POSITION": 42
          },
          "indices": 44,
          "material": 2,
          "mode": 4
        }
      ]
    },
    {
      "name": "Object_15",
      "primitives": [
        {
          "attributes": {
            "NORMAL": 46,
            "POSITION": 45
          },
          "indices": 47,
          "material": 3,
          "mode": 4
        }
      ]
    },
    {
      "name": "Object_16",
      "primitives": [
        {
          "attributes": {
            "NORMAL": 49,
            "POSITION": 48
          },
          "indices": 50,
          "material": 3,
          "mode": 4
        }
      ]
    },
    {
      "name": "Object_17",
      "primitives": [
        {
          "attributes": {
            "NORMAL": 52,
            "POSITION": 51
          },
          "indices": 53,
          "material": 2,
          "mode": 4
        }
      ]
    },
    {
      "name": "Object_18",
      "primitives": [
        {
          "attributes": {
            "NORMAL": 55,
            "POSITION": 54
          },
          "indices": 56,
          "material": 2,
          "mode": 4
        }
      ]
    },
    {
      "name": "Object_19",
      "primitives": [
        {
          "attributes": {
            "NORMAL": 58,
            "POSITION": 57
          },
          "indices": 59,
          "material": 3,
          "mode": 4
        }
      ]
    },
    {
      "name": "Object_20",
      "primitives": [
        {
          "attributes": {
            "NORMAL": 61,
            "POSITION": 60
          },
          "indices": 62,
          "material": 2,
          "mode": 4
        }
      ]
    },
    {
      "name": "Object_21",
      "primitives": [
        {
          "attributes": {
            "NORMAL": 64,
            "POSITION": 63
          },
          "indices": 65,
          "material": 2,
          "mode": 4
        }
      ]
    },
    {
      "name": "Object_22",
      "primitives": [
        {
          "attributes": {
            "NORMAL": 67,
            "POSITION": 66
          },
          "indices": 68,
          "material": 2,
          "mode": 4
        }
      ]
    },
    {
      "name": "Object_23",
      "primitives": [
        {
          "attributes": {
            "NORMAL": 70,
            "POSITION": 69
          },
          "indices": 71,
          "material": 2,
          "mode": 4
        }
      ]
    },
    {
      "name": "Object_24",
      "primitives": [
        {
          "attributes": {
            "NORMAL": 73,
            "POSITION": 72
          },
          "indices": 74,
          "material": 2,
          "mode": 4
        }
      ]
    }
  ],
  "nodes": [
    {
      "children": [
        1
      ],
      "matrix": [
        1.0,
        0.0,
        0.0,
        0.0,
        0.0,
        2.220446049250313e-16,
        -1.0,
        0.0,
        0.0,
        1.0,
        2.220446049250313e-16,
        0.0,
        0.0,
        0.0,
        0.0,
        1.0
      ],
      "name": "Sketchfab_model"
    },
    {
      "children": [
        2
      ],
      "matrix": [
        0.009999999776482582,
        0.0,
        0.0,
        0.0,
        0.0,
        2.2204459996194763e-18,
        0.009999999776482582,
        0.0,
        0.0,
        -0.009999999776482582,
        2.2204459996194763e-18,
        0.0,
        0.0,
        0.0,
        0.0,
        1.0
      ],
      "name": "USDRoot"
    },
    {
      "children": [
        3
      ],
      "name": "scene"
    },
    {
      "children": [
        4
      ],
      "matrix": [
        100.0,
        0.0,
        0.0,
        0.0,
        0.0,
        100.0,
        0.0,
        0.0,
        0.0,
        0.0,
        100.0,
        0.0,
        0.0,
        0.0,
        0.0,
        1.0
      ],
      "name": "Meshes"
    },
    {
      "children": [
        5
      ],
      "matrix": [
        1.0,
        0.0,
        0.0,
        0.0,
        0.0,
        2.220446049250313e-16,
        -1.0,
        0.0,
        0.0,
        1.0,
        2.220446049250313e-16,
        0.0,
        0.0,
        0.0,
        0.0,
        1.0
      ],
      "name": "Sketchfab_model"
    },
    {
      "children": [
        6
      ],
      "name": "root"
    },
    {
      "children": [
        7,
        12,
        15,
        20,
        29,
        34,
        37,
        42,
        45,
        48,
        53,
        58,
        61,
        64,
        67,
        70
      ],
      "matrix": [
        1.0,
        0.0,
        0.0,
        0.0,
        0.0,
        2.220446049250313e-16,
        1.0,
        0.0,
        0.0,
        -1.0,
        2.220446049250313e-16,
        0.0,
        0.0,
        0.0,
        0.0,
        1.0
      ],
      "name": "GLTF_SceneRootNode"
    },
    {
      "children": [
        8,
        10
      ],
      "matrix": [
        1.0,
        0.0,
        0.0,
        0.0,
        0.0,
        1.0,
        0.0,
        0.0,
        0.0,
        0.0,
        1.0,
        0.0,
        0.0059413909912109375,
        -0.49620145559310913,
        0.0,
        1.0
      ],
      "name": "__6x30_0"
    },
    {
      "children": [
        9
      ],
      "name": "Object_4"
    },
    {
      "mesh": 0,
      "name": "Object_0"
    },
    {
      "children": [
        11
      ],
      "name": "Object_5"
    },
    {
      "mesh": 1,
      "name": "Object_1"
    },
    {
      "children": [
        13
      ],
      "matrix": [
        1.0,
        0.0,
        0.0,
        0.0,
        0.0,
        1.0,
        0.0,
        0.0,
        0.0,
        0.0,
        1.0,
        0.0,
        0.12819385528564453,
        -0.5345169901847839,
        0.0,
        1.0
      ],
      "name": "_630_1"
    },
    {
      "children": [
        14
      ],
      "name": "Object_7"
    },
    {
      "mesh": 2,
      "name": "Object_2"
    },
    {
      "children": [
        16,
        18
      ],
      "matrix": [
        0.9982811808586121,
        -0.05860589072108269,
        0.0,
        0.0,
        0.05860589072108269,
        0.9982811808586121,
        0.0,
        0.0,
        0.0,
        0.0,
        1.0,
        0.0,
        -0.5045925974845886,
        -0.47577211260795593,
        0.0,
        1.0
      ],
      "name": "_630_mp7_30rnd_empty_mag_2"
    },
    {
      "children": [
        17
      ],
      "name": "Object_9"
    },
    {
      "mesh": 3,
      "name": "Object_3"
    },
    {
      "children": [
        19
      ],
      "name": "Object_10"
    },
    {
      "mesh": 4,
      "name": "Object_4"
    },
    {
      "children": [
        21,
        23,
        25,
        27
      ],
      "matrix": [
        1.6858739115832577e-07,
        1.0,
        0.0,
        0.0,
        -1.0,
        1.6858739115832577e-07,
        0.0,
        0.0,
        0.0,
        0.0,
        1.0,
        0.0,
        1.0689406394958496,
        -0.7811455726623535,
        0.0,
        1.0
      ],
      "name": "_630_mp7_30rnd_mag_3"
    },
    {
      "children": [
        22
      ],
      "name": "Object_12"
    },
    {
      "mesh": 5,
      "name": "Object_5"
    },
    {
      "children": [
        24
      ],
      "name": "Object_13"
    },
    {
      "mesh": 6,
      "name": "Object_6"
    },
    {
      "children": [
        26
      ],
      "name": "Object_14"
    },
    {
      "mesh": 7,
      "name": "Object_7"
    },
    {
      "children": [
        28
      ],
      "name": "Object_15"
    },
    {
      "mesh": 8,
      "name": "Object_8"
    },
    {
      "children": [
        30,
        32
      ],
      "matrix": [
        1.0,
        0.0,
        0.0,
        0.0,
        0.0,
        1.0,
        0.0,
        0.0,
        0.0,
        0.0,
        1.0,
        0.0,
        0.7350743412971497,
        0.30636581778526306,
        0.0,
        1.0
      ],
      "name": "mp7a1_7in_barrel_4"
    },
    {
      "children": [
        31
      ],
      "name": "Object_17"
    },
    {
      "mesh": 9,
      "name": "Object_9"
    },
    {
      "children": [
        33
      ],
      "name": "Object_18"
    },
    {
      "mesh": 10,
      "name": "Object_10"
    },
    {
      "children": [
        35
      ],
      "matrix": [
        1.0,
        0.0,
        0.0,
        0.0,
        0.0,
        1.0,
        0.0,
        0.0,
        0.0,
        0.0,
        1.0,
        0.0,
        1.8424001932144165,
        0.3063657879829407,
        0.0,
        1.0
      ],
      "name": "mp7a1_flash_hider_5"
    },
    {
      "children": [
        36
      ],
      "name": "Object_20"
    },
    {
      "mesh": 11,
      "name": "Object_11"
    },
    {
      "children": [
        38,
        40
      ],
      "matrix": [
        0.31069904565811157,
        0.0,
        0.0,
        0.0,
        0.0,
        0.31069904565811157,
        0.0,
        0.0,
        0.0,
        0.0,
        0.31069904565811157,
        0.0,
        -0.10029972344636917,
        -0.04702294245362282,
        0.0,
        1.0
      ],
      "name": "mp7a1_receiver_6"
    },
    {
      "children": [
        39
      ],
      "name": "Object_22"
    },
    {
      "mesh": 12,
      "name": "Object_12"
    },
    {
      "children": [
        41
      ],
      "name": "Object_23"
    },
    {
      "mesh": 13,
      "name": "Object_13"
    },
    {
      "children": [
        43
      ],
      "matrix": [
        1.0,
        0.0,
        0.0,
        0.0,
        0.0,
        1.0,
        0.0,
        0.0,
        0.0,
        0.0,
        1.0,
        0.0,
        -0.6613784432411194,
        0.348953515291214,
        0.0,
        1.0
      ],
      "name": "mp7a1_bolt_carrier_7"
    },
    {
      "children": [
        44
      ],
      "name": "Object_25"
    },
    {
      "mesh": 14,
      "name": "Object_14"
    },
    {
      "children": [
        46
      ],
      "matrix": [
        0.08350741863250732,
        0.0,
        0.0,
        0.0,
        0.0,
        0.08350741863250732,
        0.0,
        0.0,
        0.0,
        0.0,
        0.08350741863250732,
        0.0,
        -1.2407937049865723,
        0.6579184532165527,
        0.0,
        1.0
      ],
      "name": "mp7a1_charging_handle_8"
    },
    {
      "children": [
        47
      ],
      "name": "Object_27"
    },
    {
      "mesh": 15,
      "name": "Object_15"
    },
    {
      "children": [
        49,
        51
      ],
      "matrix": [
        1.0,
        0.0,
        0.0,
        0.0,
        0.0,
        1.0,
        0.0,
        0.0,
        0.0,
        0.0,
        1.0,
        0.0,
        1.1813669204711914,
        -0.016767509281635284,
        0.0,
        1.0
      ],
      "name": "mp7a1_integrated_folding_foregrip_9"
    },
    {
      "children": [
        50
      ],
      "name": "Object_29"
    },
    {
      "mesh": 16,
      "name": "Object_16"
    },
    {
      "children": [
        52
      ],
      "name": "Object_30"
    },
    {
      "mesh": 17,
      "name": "Object_17"
    },
    {
      "children": [
        54,
        56
      ],
      "matrix": [
        1.0,
        0.0,
        0.0,
        0.0,
        0.0,
        1.0,
        0.0,
        0.0,
        0.0,
        0.0,
        1.0,
        0.0,
        -1.1664931774139404,
        0.15787363052368164,
        0.0,
        1.0
      ],
      "name": "mp7a1_stock_10"
    },
    {
      "children": [
        55
      ],
      "name": "Object_32"
    },
    {
      "mesh": 18,
      "name": "Object_18"
    },
    {
      "children": [
        57
      ],
      "name": "Object_33"
    },
    {
      "mesh": 19,
      "name": "Object_19"
    },
    {
      "children": [
        59
      ],
      "matrix": [
        1.0,
        0.0,
        0.0,
        0.0,
        0.0,
        1.0,
        0.0,
        0.0,
        0.0,
        0.0,
        1.0,
        0.0,
        -0.23850972950458527,
        0.14825566112995148,
        0.0,
        1.0
      ],
      "name": "mp7a1_selector_11"
    },
    {
      "children": [
        60
      ],
      "name": "Object_35"
    },
    {
      "mesh": 20,
      "name": "Object_20"
    },
    {
      "children": [
        62
      ],
      "matrix": [
        1.0,
        0.0,
        0.0,
        0.0,
        0.0,
        1.0,
        0.0,
        0.0,
        0.0,
        0.0,
        1.0,
        0.0,
        -0.004261519759893417,
        0.16375046968460083,
        0.0,
        1.0
      ],
      "name": "mp7a1_bolt_release_12"
    },
    {
      "children": [
        63
      ],
      "name": "Object_37"
    },
    {
      "mesh": 21,
      "name": "Object_21"
    },
    {
      "children": [
        65
      ],
      "matrix": [
        1.0,
        0.0,
        0.0,
        0.0,
        0.0,
        1.0,
        0.0,
        0.0,
        0.0,
        0.0,
        1.0,
        0.0,
        -0.11105789244174957,
        0.15074455738067627,
        0.0,
        1.0
      ],
      "name": "mp7a1_trigga_13"
    },
    {
      "children": [
        66
      ],
      "name": "Object_39"
    },
    {
      "mesh": 22,
      "name": "Object_22"
    },
    {
      "children": [
        68
      ],
      "matrix": [
        1.0,
        0.0,
        0.0,
        0.0,
        0.0,
        1.0,
        0.0,
        0.0,
        0.0,
        0.0,
        1.0,
        0.0,
        1.014844536781311,
        0.869208812713623,
        0.0,
        1.0
      ],
      "name": "mp7a1_front_iron_sight_14"
    },
    {
      "children": [
        69
      ],
      "name": "Object_41"
    },
    {
      "mesh": 23,
      "name": "Object_23"
    },
    {
      "children": [
        71
      ],
      "matrix": [
        1.0,
        0.0,
        0.0,
        0.0,
        0.0,
        1.0,
        0.0,
        0.0,
        0.0,
        0.0,
        1.0,
        0.0,
        -1.3102830648422241,
        0.869208812713623,
        0.0,
        1.0
      ],
      "name": "mp7a1_reaar_iron_sight_15"
    },
    {
      "children": [
        72
      ],
      "name": "Object_43"
    },
    {
      "mesh": 24,
      "name": "Object_24"
    }
  ],
  "scene": 0,
  "scenes": [
    {
      "name": "Sketchfab_Scene",
      "nodes": [
        0
      ]
    }
  ]
}
