{
  "accessors": [
    {
      "bufferView": 2,
      "componentType": 5126,
      "count": 553,
      "max": [
        0.25634244084358215,
        0.23723652958869934,
        0.24595651030540466
      ],
      "min": [
        -0.21860414743423462,
        -0.19222591817378998,
        -0.24595652520656586
      ],
      "type": "VEC3"
    },
    {
      "bufferView": 2,
      "byteOffset": 6636,
      "componentType": 5126,
      "count": 553,
      "max": [
        0.7681002020835876,
        0.8230833411216736,
        0.958827018737793
      ],
      "min": [
        -0.7681001424789429,
        -0.8218326568603516,
        -0.9593591690063477
      ],
      "type": "VEC3"
    },
    {
      "bufferView": 1,
      "componentType": 5126,
      "count": 553,
      "max": [
        1.0,
        1.0
      ],
      "min": [
        -7.450580596923828e-08,
        0.05740910768508911
      ],
      "type": "VEC2"
    },
    {
      "bufferView": 0,
      "componentType": 5125,
      "count": 912,
      "type": "SCALAR"
    },
    {
      "bufferView": 2,
      "byteOffset": 13272,
      "componentType": 5126,
      "count": 102,
      "max": [
        0.04684869199991226,
        0.23058202862739563,
        0.04925966635346413
      ],
      "min": [
        -0.04684870317578316,
        -0.13732120394706726,
        -0.04925966262817383
      ],
      "type": "VEC3"
    },
    {
      "bufferView": 2,
      "byteOffset": 14496,
      "componentType": 5126,
      "count": 102,
      "max": [
        0.8822801113128662,
        1.0,
        0.8390982747077942
      ],
      "min": [
        -0.8822794556617737,
        -1.0,
        -0.8390981554985046
      ],
      "type": "VEC3"
    },
    {
      "bufferView": 1,
      "byteOffset": 4424,
      "componentType": 5126,
      "count": 102,
      "max": [
        1.0,
        1.0
      ],
      "min": [
        -7.450580596923828e-08,
        0.032630667090415955
      ],
      "type": "VEC2"
    },
    {
      "bufferView": 0,
      "byteOffset": 3648,
      "componentType": 5125,
      "count": 228,
      "type": "SCALAR"
    },
    {
      "bufferView": 2,
      "byteOffset": 15720,
      "componentType": 5126,
      "count": 102,
      "max": [
        0.10315798968076706,
        0.20914220809936523,
        0.09899980574846268
      ],
      "min": [
        -0.10315798968076706,
        -0.11690735071897507,
        -0.09899979829788208
      ],
      "type": "VEC3"
    },
    {
      "bufferView": 2,
      "byteOffset": 16944,
      "componentType": 5126,
      "count": 102,
      "max": [
        0.8732501268386841,
        1.0,
        0.909929096698761
      ],
      "min": [
        -0.8732501268386841,
        -1.0,
        -0.9099286794662476
      ],
      "type": "VEC3"
    },
    {
      "bufferView": 1,
      "byteOffset": 5240,
      "componentType": 5126,
      "count": 102,
      "max": [
        1.0,
        1.0
      ],
      "min": [
        -7.450580596923828e-08,
        0.017950817942619324
      ],
      "type": "VEC2"
    },
    {
      "bufferView": 0,
      "byteOffset": 4560,
      "componentType": 5125,
      "count": 228,
      "type": "SCALAR"
    },
    {
      "bufferView": 2,
      "byteOffset": 18168,
      "componentType": 5126,
      "count": 32,
      "max": [
        0.14233499765396118,
        0.11943324655294418,
        0.3096553087234497
      ],
      "min": [
        -0.14524289965629578,
        -0.12289883941411972,
        -0.3096553087234497
      ],
      "type": "VEC3"
    },
    {
      "bufferView": 2,
      "byteOffset": 18552,
      "componentType": 5126,
      "count": 32,
      "max": [
        0.6427876949310303,
        0.7660443782806396,
        4.404213527209322e-08
      ],
      "min": [
        -0.642787754535675,
        -0.7660443186759949,
        -5.3260251320352836e-08
      ],
      "type": "VEC3"
    },
    {
      "bufferView": 1,
      "byteOffset": 6056,
      "componentType": 5126,
      "count": 32,
      "max": [
        1.0005265474319458,
        0.9992961883544922
      ],
      "min": [
        0.0006814152002334595,
        0.35891667008399963
      ],
      "type": "VEC2"
    },
    {
      "bufferView": 0,
      "byteOffset": 5472,
      "componentType": 5125,
      "count": 84,
      "type": "SCALAR"
    },
    {
      "bufferView": 2,
      "byteOffset": 18936,
      "componentType": 5126,
      "count": 108,
      "max": [
        0.37655767798423767,
        0.35212913155555725,
        0.49217307567596436
      ],
      "min": [
        -0.3798640966415405,
        -0.35212913155555725,
        -0.6478451490402222
      ],
      "type": "VEC3"
    },
    {
      "bufferView": 2,
      "byteOffset": 20232,
      "componentType": 5126,
      "count": 108,
      "max": [
        0.9528335332870483,
        0.9962183833122253,
        1.0
      ],
      "min": [
        -0.956304669380188,
        -0.9998477697372437,
        -1.0
      ],
      "type": "VEC3"
    },
    {
      "bufferView": 1,
      "byteOffset": 6312,
      "componentType": 5126,
      "count": 108,
      "max": [
        0.9761133193969727,
        0.9956424236297607
      ],
      "min": [
        0.012401565909385681,
        0.0
      ],
      "type": "VEC2"
    },
    {
      "bufferView": 0,
      "byteOffset": 5808,
      "componentType": 5125,
      "count": 300,
      "type": "SCALAR"
    },
    {
      "bufferView": 2,
      "byteOffset": 21528,
      "componentType": 5126,
      "count": 30,
      "max": [
        0.3111271560192108,
        0.2697095274925232,
        0.33825328946113586
      ],
      "min": [
        -0.28461506962776184,
        -0.23931805789470673,
        -0.33825328946113586
      ],
      "type": "VEC3"
    },
    {
      "bufferView": 2,
      "byteOffset": 21888,
      "componentType": 5126,
      "count": 30,
      "max": [
        0.7660444378852844,
        0.7660444974899292,
        1.0
      ],
      "min": [
        -0.7660447359085083,
        -0.7660444974899292,
        -1.0
      ],
      "type": "VEC3"
    },
    {
      "bufferView": 1,
      "byteOffset": 7176,
      "componentType": 5126,
      "count": 30,
      "max": [
        0.9998953938484192,
        0.9995075464248657
      ],
      "min": [
        0.00010450687841512263,
        0.45276179909706116
      ],
      "type": "VEC2"
    },
    {
      "bufferView": 0,
      "byteOffset": 7008,
      "componentType": 5125,
      "count": 48,
      "type": "SCALAR"
    },
    {
      "bufferView": 2,
      "byteOffset": 22248,
      "componentType": 5126,
      "count": 86,
      "max": [
        0.22553130984306335,
        0.10518578439950943,
        0.1760435700416565
      ],
      "min": [
        -0.17932896316051483,
        -0.18512378633022308,
        -0.17649482190608978
      ],
      "type": "VEC3"
    },
    {
      "bufferView": 2,
      "byteOffset": 23280,
      "componentType": 5126,
      "count": 86,
      "max": [
        0.7883923053741455,
        0.9948113560676575,
        0.7256502509117126
      ],
      "min": [
        -0.7887847423553467,
        -0.8999578356742859,
        -0.7249886393547058
      ],
      "type": "VEC3"
    },
    {
      "bufferView": 1,
      "byteOffset": 7416,
      "componentType": 5126,
      "count": 86,
      "max": [
        0.9748468399047852,
        0.9312010407447815
      ],
      "min": [
        0.02959226444363594,
        0.04118987172842026
      ],
      "type": "VEC2"
    },
    {
      "bufferView": 0,
      "byteOffset": 7200,
      "componentType": 5125,
      "count": 90,
      "type": "SCALAR"
    },
    {
      "bufferView": 2,
      "byteOffset": 24312,
      "componentType": 5126,
      "count": 46,
      "max": [
        0.18931429088115692,
        0.08144453167915344,
        0.10863855481147766
      ],
      "min": [
        -0.08144453167915344,
        -0.1893143206834793,
        -0.10863856971263885
      ],
      "type": "VEC3"
    },
    {
      "bufferView": 2,
      "byteOffset": 24864,
      "componentType": 5126,
      "count": 46,
      "max": [
        0.7071068286895752,
        0.70710688829422,
        1.0
      ],
      "min": [
        -0.70710688829422,
        -0.70710688829422,
        -1.0
      ],
      "type": "VEC3"
    },
    {
      "bufferView": 1,
      "byteOffset": 8104,
      "componentType": 5126,
      "count": 46,
      "max": [
        0.9832278490066528,
        0.9886513948440552
      ],
      "min": [
        0.012998342514038086,
        0.021985026076436043
      ],
      "type": "VEC2"
    },
    {
      "bufferView": 0,
      "byteOffset": 7560,
      "componentType": 5125,
      "count": 84,
      "type": "SCALAR"
    },
    {
      "bufferView": 2,
      "byteOffset": 25416,
      "componentType": 5126,
      "count": 166,
      "max": [
        0.3575608730316162,
        0.09413808584213257,
        0.43339627981185913
      ],
      "min": [
        -0.10613247007131577,
        -0.30674904584884644,
        -0.13739615678787231
      ],
      "type": "VEC3"
    },
    {
      "bufferView": 2,
      "byteOffset": 27408,
      "componentType": 5126,
      "count": 166,
      "max": [
        0.9963276982307434,
        0.9960870742797852,
        0.9942145347595215
      ],
      "min": [
        -0.9963276982307434,
        -0.9960868954658508,
        -0.9949662685394287
      ],
      "type": "VEC3"
    },
    {
      "bufferView": 1,
      "byteOffset": 8472,
      "componentType": 5126,
      "count": 166,
      "max": [
        0.9355736374855042,
        0.9753161668777466
      ],
      "min": [
        0.03411257266998291,
        0.0674210786819458
      ],
      "type": "VEC2"
    },
    {
      "bufferView": 0,
      "byteOffset": 7896,
      "componentType": 5125,
      "count": 471,
      "type": "SCALAR"
    },
    {
      "bufferView": 2,
      "byteOffset": 29400,
      "componentType": 5126,
      "count": 100,
      "max": [
        0.26011335849761963,
        0.1432495415210724,
        0.1203307956457138
      ],
      "min": [
        -0.16901904344558716,
        -0.21968673169612885,
        -0.120330810546875
      ],
      "type": "VEC3"
    },
    {
      "bufferView": 2,
      "byteOffset": 30600,
      "componentType": 5126,
      "count": 100,
      "max": [
        0.7660441994667053,
        0.7660444974899292,
        1.0
      ],
      "min": [
        -0.7660444974899292,
        -0.766044557094574,
        -1.0
      ],
      "type": "VEC3"
    },
    {
      "bufferView": 1,
      "byteOffset": 9800,
      "componentType": 5126,
      "count": 100,
      "max": [
        0.967253565788269,
        1.0
      ],
      "min": [
        0.0,
        0.0
      ],
      "type": "VEC2"
    },
    {
      "bufferView": 0,
      "byteOffset": 9780,
      "componentType": 5125,
      "count": 180,
      "type": "SCALAR"
    },
    {
      "bufferView": 2,
      "byteOffset": 31800,
      "componentType": 5126,
      "count": 248,
      "max": [
        0.36193010210990906,
        0.36193007230758667,
        0.5118463039398193
      ],
      "min": [
        -0.3619300425052643,
        -0.3619300127029419,
        -0.5118464231491089
      ],
      "type": "VEC3"
    },
    {
      "bufferView": 2,
      "byteOffset": 34776,
      "componentType": 5126,
      "count": 248,
      "max": [
        0.9946463108062744,
        0.9946463108062744,
        1.0
      ],
      "min": [
        -0.9946463108062744,
        -0.9946463108062744,
        -1.0
      ],
      "type": "VEC3"
    },
    {
      "bufferView": 1,
      "byteOffset": 10600,
      "componentType": 5126,
      "count": 248,
      "max": [
        0.9737602472305298,
        0.987750232219696
      ],
      "min": [
        0.018259644508361816,
        0.15619024634361267
      ],
      "type": "VEC2"
    },
    {
      "bufferView": 0,
      "byteOffset": 10500,
      "componentType": 5125,
      "count": 618,
      "type": "SCALAR"
    },
    {
      "bufferView": 2,
      "byteOffset": 37752,
      "componentType": 5126,
      "count": 30,
      "max": [
        0.3111271560192108,
        0.2697095274925232,
        0.33825328946113586
      ],
      "min": [
        -0.28461506962776184,
        -0.23931805789470673,
        -0.33825328946113586
      ],
      "type": "VEC3"
    },
    {
      "bufferView": 2,
      "byteOffset": 38112,
      "componentType": 5126,
      "count": 30,
      "max": [
        0.7660444378852844,
        0.7660444974899292,
        1.0
      ],
      "min": [
        -0.7660447359085083,
        -0.7660444974899292,
        -1.0
      ],
      "type": "VEC3"
    },
    {
      "bufferView": 1,
      "byteOffset": 12584,
      "componentType": 5126,
      "count": 30,
      "max": [
        0.9998953938484192,
        0.9995075464248657
      ],
      "min": [
        0.00010450687841512263,
        0.45276179909706116
      ],
      "type": "VEC2"
    },
    {
      "bufferView": 0,
      "byteOffset": 12972,
      "componentType": 5125,
      "count": 48,
      "type": "SCALAR"
    },
    {
      "bufferView": 2,
      "byteOffset": 38472,
      "componentType": 5126,
      "count": 30,
      "max": [
        0.3111271560192108,
        0.2697095274925232,
        0.33825328946113586
      ],
      "min": [
        -0.28461506962776184,
        -0.23931805789470673,
        -0.33825328946113586
      ],
      "type": "VEC3"
    },
    {
      "bufferView": 2,
      "byteOffset": 38832,
      "componentType": 5126,
      "count": 30,
      "max": [
        0.7660444378852844,
        0.7660444974899292,
        1.0
      ],
      "min": [
        -0.7660447359085083,
        -0.7660444974899292,
        -1.0
      ],
      "type": "VEC3"
    },
    {
      "bufferView": 1,
      "byteOffset": 12824,
      "componentType": 5126,
      "count": 30,
      "max": [
        0.9998953938484192,
        0.9995075464248657
      ],
      "min": [
        0.00010450687841512263,
        0.45276179909706116
      ],
      "type": "VEC2"
    },
    {
      "bufferView": 0,
      "byteOffset": 13164,
      "componentType": 5125,
      "count": 48,
      "type": "SCALAR"
    },
    {
      "bufferView": 2,
      "byteOffset": 39192,
      "componentType": 5126,
      "count": 86,
      "max": [
        0.22553130984306335,
        0.10518578439950943,
        0.1760435700416565
      ],
      "min": [
        -0.17932896316051483,
        -0.18512378633022308,
        -0.17649482190608978
      ],
      "type": "VEC3"
    },
    {
      "bufferView": 2,
      "byteOffset": 40224,
      "componentType": 5126,
      "count": 86,
      "max": [
        0.7883923053741455,
        0.9948113560676575,
        0.7256502509117126
      ],
      "min": [
        -0.7887847423553467,
        -0.8999578356742859,
        -0.7249886393547058
      ],
      "type": "VEC3"
    },
    {
      "bufferView": 1,
      "byteOffset": 13064,
      "componentType": 5126,
      "count": 86,
      "max": [
        0.9748468399047852,
        0.9312010407447815
      ],
      "min": [
        0.02959226444363594,
        0.04118987172842026
      ],
      "type": "VEC2"
    },
    {
      "bufferView": 0,
      "byteOffset": 13356,
      "componentType": 5125,
      "count": 90,
      "type": "SCALAR"
    },
    {
      "bufferView": 2,
      "byteOffset": 41256,
      "componentType": 5126,
      "count": 86,
      "max": [
        0.22553130984306335,
        0.10518578439950943,
        0.1760435700416565
      ],
      "min": [
        -0.17932896316051483,
        -0.18512378633022308,
        -0.17649482190608978
      ],
      "type": "VEC3"
    },
    {
      "bufferView": 2,
      "byteOffset": 42288,
      "componentType": 5126,
      "count": 86,
      "max": [
        0.7883923053741455,
        0.9948113560676575,
        0.7256502509117126
      ],
      "min": [
        -0.7887847423553467,
        -0.8999578356742859,
        -0.7249886393547058
      ],
      "type": "VEC3"
    },
    {
      "bufferView": 1,
      "byteOffset": 13752,
      "componentType": 5126,
      "count": 86,
      "max": [
        0.9748468399047852,
        0.9312010407447815
      ],
      "min": [
        0.02959226444363594,
        0.04118987172842026
      ],
      "type": "VEC2"
    },
    {
      "bufferView": 0,
      "byteOffset": 13716,
      "componentType": 5125,
      "count": 90,
      "type": "SCALAR"
    },
    {
      "bufferView": 2,
      "byteOffset": 43320,
      "componentType": 5126,
      "count": 86,
      "max": [
        0.22553130984306335,
        0.10518578439950943,
        0.1760435700416565
      ],
      "min": [
        -0.17932896316051483,
        -0.18512378633022308,
        -0.17649482190608978
      ],
      "type": "VEC3"
    },
    {
      "bufferView": 2,
      "byteOffset": 44352,
      "componentType": 5126,
      "count": 86,
      "max": [
        0.7883923053741455,
        0.9948113560676575,
        0.7256502509117126
      ],
      "min": [
        -0.7887847423553467,
        -0.8999578356742859,
        -0.7249886393547058
      ],
      "type": "VEC3"
    },
    {
      "bufferView": 1,
      "byteOffset": 14440,
      "componentType": 5126,
      "count": 86,
      "max": [
        0.9748468399047852,
        0.9312010407447815
      ],
      "min": [
        0.02959226444363594,
        0.04118987172842026
      ],
      "type": "VEC2"
    },
    {
      "bufferView": 0,
      "byteOffset": 14076,
      "componentType": 5125,
      "count": 90,
      "type": "SCALAR"
    },
    {
      "bufferView": 2,
      "byteOffset": 45384,
      "componentType": 5126,
      "count": 46,
      "max": [
        0.18931429088115692,
        0.08144453167915344,
        0.10863855481147766
      ],
      "min": [
        -0.08144453167915344,
        -0.1893143206834793,
        -0.10863856971263885
      ],
      "type": "VEC3"
    },
    {
      "bufferView": 2,
      "byteOffset": 45936,
      "componentType": 5126,
      "count": 46,
      "max": [
        0.7071068286895752,
        0.70710688829422,
        1.0
      ],
      "min": [
        -0.70710688829422,
        -0.70710688829422,
        -1.0
      ],
      "type": "VEC3"
    },
    {
      "bufferView": 1,
      "byteOffset": 15128,
      "componentType": 5126,
      "count": 46,
      "max": [
        0.9832278490066528,
        0.9886513948440552
      ],
      "min": [
        0.012998342514038086,
        0.021985026076436043
      ],
      "type": "VEC2"
    },
    {
      "bufferView": 0,
      "byteOffset": 14436,
      "componentType": 5125,
      "count": 84,
      "type": "SCALAR"
    },
    {
      "bufferView": 2,
      "byteOffset": 46488,
      "componentType": 5126,
      "count": 46,
      "max": [
        0.18931429088115692,
        0.08144453167915344,
        0.10863855481147766
      ],
      "min": [
        -0.08144453167915344,
        -0.1893143206834793,
        -0.10863856971263885
      ],
      "type": "VEC3"
    },
    {
      "bufferView": 2,
      "byteOffset": 47040,
      "componentType": 5126,
      "count": 46,
      "max": [
        0.7071068286895752,
        0.70710688829422,
        1.0
      ],
      "min": [
        -0.70710688829422,
        -0.70710688829422,
        -1.0
      ],
      "type": "VEC3"
    },
    {
      "bufferView": 1,
      "byteOffset": 15496,
      "componentType": 5126,
      "count": 46,
      "max": [
        0.9832278490066528,
        0.9886513948440552
      ],
      "min": [
        0.012998342514038086,
        0.021985026076436043
      ],
      "type": "VEC2"
    },
    {
      "bufferView": 0,
      "byteOffset": 14772,
      "componentType": 5125,
      "count": 84,
      "type": "SCALAR"
    },
    {
      "bufferView": 2,
      "byteOffset": 47592,
      "componentType": 5126,
      "count": 32,
      "max": [
        0.14233499765396118,
        0.11943324655294418,
        0.3096553087234497
      ],
      "min": [
        -0.14524289965629578,
        -0.12289883941411972,
        -0.3096553087234497
      ],
      "type": "VEC3"
    },
    {
      "bufferView": 2,
      "byteOffset": 47976,
      "componentType": 5126,
      "count": 32,
      "max": [
        0.6427876949310303,
        0.7660443782806396,
        4.404213527209322e-08
      ],
      "min": [
        -0.642787754535675,
        -0.7660443186759949,
        -5.3260251320352836e-08
      ],
      "type": "VEC3"
    },
    {
      "bufferView": 1,
      "byteOffset": 15864,
      "componentType": 5126,
      "count": 32,
      "max": [
        1.0005265474319458,
        0.9992961883544922
      ],
      "min": [
        0.0006814152002334595,
        0.35891667008399963
      ],
      "type": "VEC2"
    },
    {
      "bufferView": 0,
      "byteOffset": 15108,
      "componentType": 5125,
      "count": 84,
      "type": "SCALAR"
    },
    {
      "bufferView": 2,
      "byteOffset": 48360,
      "componentType": 5126,
      "count": 32,
      "max": [
        0.14233499765396118,
        0.11943324655294418,
        0.3096553087234497
      ],
      "min": [
        -0.14524289965629578,
        -0.12289883941411972,
        -0.3096553087234497
      ],
      "type": "VEC3"
    },
    {
      "bufferView": 2,
      "byteOffset": 48744,
      "componentType": 5126,
      "count": 32,
      "max": [
        0.6427876949310303,
        0.7660443782806396,
        4.404213527209322e-08
      ],
      "min": [
        -0.642787754535675,
        -0.7660443186759949,
        -5.3260251320352836e-08
      ],
      "type": "VEC3"
    },
    {
      "bufferView": 1,
      "byteOffset": 16120,
      "componentType": 5126,
      "count": 32,
      "max": [
        1.0005265474319458,
        0.9992961883544922
      ],
      "min": [
        0.0006814152002334595,
        0.35891667008399963
      ],
      "type": "VEC2"
    },
    {
      "bufferView": 0,
      "byteOffset": 15444,
      "componentType": 5125,
      "count": 84,
      "type": "SCALAR"
    },
    {
      "bufferView": 2,
      "byteOffset": 49128,
      "componentType": 5126,
      "count": 32,
      "max": [
        0.14233499765396118,
        0.11943324655294418,
        0.3096553087234497
      ],
      "min": [
        -0.14524289965629578,
        -0.12289883941411972,
        -0.3096553087234497
      ],
      "type": "VEC3"
    },
    {
      "bufferView": 2,
      "byteOffset": 49512,
      "componentType": 5126,
      "count": 32,
      "max": [
        0.6427876949310303,
        0.7660443782806396,
        4.404213527209322e-08
      ],
      "min": [
        -0.642787754535675,
        -0.7660443186759949,
        -5.3260251320352836e-08
      ],
      "type": "VEC3"
    },
    {
      "bufferView": 1,
      "byteOffset": 16376,
      "componentType": 5126,
      "count": 32,
      "max": [
        1.0005265474319458,
        0.9992961883544922
      ],
      "min": [
        0.0006814152002334595,
        0.35891667008399963
      ],
      "type": "VEC2"
    },
    {
      "bufferView": 0,
      "byteOffset": 15780,
      "componentType": 5125,
      "count": 84,
      "type": "SCALAR"
    },
    {
      "bufferView": 2,
      "byteOffset": 49896,
      "componentType": 5126,
      "count": 100,
      "max": [
        0.26011335849761963,
        0.1432495415210724,
        0.1203307956457138
      ],
      "min": [
        -0.16901904344558716,
        -0.21968673169612885,
        -0.120330810546875
      ],
      "type": "VEC3"
    },
    {
      "bufferView": 2,
      "byteOffset": 51096,
      "componentType": 5126,
      "count": 100,
      "max": [
        0.7660441994667053,
        0.7660444974899292,
        1.0
      ],
      "min": [
        -0.7660444974899292,
        -0.766044557094574,
        -1.0
      ],
      "type": "VEC3"
    },
    {
      "bufferView": 1,
      "byteOffset": 16632,
      "componentType": 5126,
      "count": 100,
      "max": [
        0.967253565788269,
        1.0
      ],
      "min": [
        0.0,
        0.0
      ],
      "type": "VEC2"
    },
    {
      "bufferView": 0,
      "byteOffset": 16116,
      "componentType": 5125,
      "count": 180,
      "type": "SCALAR"
    },
    {
      "bufferView": 2,
      "byteOffset": 52296,
      "componentType": 5126,
      "count": 100,
      "max": [
        0.26011335849761963,
        0.1432495415210724,
        0.1203307956457138
      ],
      "min": [
        -0.16901904344558716,
        -0.21968673169612885,
        -0.120330810546875
      ],
      "type": "VEC3"
    },
    {
      "bufferView": 2,
      "byteOffset": 53496,
      "componentType": 5126,
      "count": 100,
      "max": [
        0.7660441994667053,
        0.7660444974899292,
        1.0
      ],
      "min": [
        -0.7660444974899292,
        -0.766044557094574,
        -1.0
      ],
      "type": "VEC3"
    },
    {
      "bufferView": 1,
      "byteOffset": 17432,
      "componentType": 5126,
      "count": 100,
      "max": [
        0.967253565788269,
        1.0
      ],
      "min": [
        0.0,
        0.0
      ],
      "type": "VEC2"
    },
    {
      "bufferView": 0,
      "byteOffset": 16836,
      "componentType": 5125,
      "count": 180,
      "type": "SCALAR"
    },
    {
      "bufferView": 2,
      "byteOffset": 54696,
      "componentType": 5126,
      "count": 100,
      "max": [
        0.26011335849761963,
        0.1432495415210724,
        0.1203307956457138
      ],
      "min": [
        -0.16901904344558716,
        -0.21968673169612885,
        -0.120330810546875
      ],
      "type": "VEC3"
    },
    {
      "bufferView": 2,
      "byteOffset": 55896,
      "componentType": 5126,
      "count": 100,
      "max": [
        0.7660441994667053,
        0.7660444974899292,
        1.0
      ],
      "min": [
        -0.7660444974899292,
        -0.766044557094574,
        -1.0
      ],
      "type": "VEC3"
    },
    {
      "bufferView": 1,
      "byteOffset": 18232,
      "componentType": 5126,
      "count": 100,
      "max": [
        0.967253565788269,
        1.0
      ],
      "min": [
        0.0,
        0.0
      ],
      "type": "VEC2"
    },
    {
      "bufferView": 0,
      "byteOffset": 17556,
      "componentType": 5125,
      "count": 180,
      "type": "SCALAR"
    }
  ],
  "asset": {
    "extras": {
      "author": "josuecandela (https://sketchfab.com/josuecandela)",
      "license": "CC-BY-4.0 (http://creativecommons.org/licenses/by/4.0/)",
      "source": "https://sketchfab.com/3d-models/retro-horror-puzzle-item-pack-ed0c325a9d6a40ae8c4a134984210cd6",
      "title": "Retro Horror - Puzzle Item Pack"
    },
    "generator": "Sketchfab-15.29.0",
    "version": "2.0"
  },
  "bufferViews": [
    {
      "buffer": 0,
      "byteLength": 18276,
      "name": "floatBufferViews",
      "target": 34963
    },
    {
      "buffer": 0,
      "byteLength": 19032,
      "byteOffset": 18276,
      "byteStride": 8,
      "name": "floatBufferViews",
      "target": 34962
    },
    {
      "buffer": 0,
      "byteLength": 57096,
      "byteOffset": 37308,
      "byteStride": 12,
      "name": "floatBufferViews",
      "target": 34962
    }
  ],
  "buffers": [
    {
      "byteLength": 94404,
      "uri": "scene.bin"
    }
  ],
  "extensionsUsed": [
    "KHR_materials_unlit"
  ],
  "images": [
    {
      "uri": "textures/Gear_baseColor.png"
    },
    {
      "uri": "textures/BakedBatteryA_baseColor.png"
    },
    {
      "uri": "textures/CardBlue_baseColor.png"
    },
    {
      "uri": "textures/Crank_baseColor.png"
    },
    {
      "uri": "textures/FloppyRed_baseColor.png"
    },
    {
      "uri": "textures/GemRed_baseColor.png"
    },
    {
      "uri": "textures/ZippoChrome_baseColor.png"
    },
    {
      "uri": "textures/SmallKey_baseColor.png"
    },
    {
      "uri": "textures/USBKeyMetal_baseColor.png"
    },
    {
      "uri": "textures/Valve_baseColor.png"
    },
    {
      "uri": "textures/FloppyBlue_baseColor.png"
    },
    {
      "uri": "textures/FloppyYellow_baseColor.png"
    },
    {
      "uri": "textures/GemBlue_baseColor.png"
    },
    {
      "uri": "textures/GemYellow_baseColor.png"
    },
    {
      "uri": "textures/GemGreen_baseColor.png"
    },
    {
      "uri": "textures/ZippoBrass_baseColor.png"
    },
    {
      "uri": "textures/ZippoFlowers_baseColor.png"
    },
    {
      "uri": "textures/CardRed_baseColor.png"
    },
    {
      "uri": "textures/CardYellow_baseColor.png"
    },
    {
      "uri": "textures/CardSecurity_baseColor.png"
    },
    {
      "uri": "textures/USBKeyMetalBlue_baseColor.png"
    },
    {
      "uri": "textures/USBKeyRed_baseColor.png"
    },
    {
      "uri": "textures/USBKeyYellow_baseColor.png"
    }
  ],
  "materials": [
    {
      "doubleSided": true,
      "extensions": {
        "KHR_materials_unlit": {}
      },
      "name": "Gear",
      "pbrMetallicRoughness": {
        "baseColorTexture": {
          "index": 0
        },
        "metallicFactor": 0.0
      }
    },
    {
      "doubleSided": true,
      "extensions": {
        "KHR_materials_unlit": {}
      },
      "name": "BakedBatteryA",
      "pbrMetallicRoughness": {
        "baseColorTexture": {
          "index": 1
        },
        "metallicFactor": 0.0
      }
    },
    {
      "doubleSided": true,
      "extensions": {
        "KHR_materials_unlit": {}
      },
      "name": "BakedBatteryC",
      "pbrMetallicRoughness": {
        "baseColorTexture": {
          "index": 2
        },
        "metallicFactor": 0.0
      }
    },
    {
      "doubleSided": true,
      "extensions": {
        "KHR_materials_unlit": {}
      },
      "name": "CardBlue",
      "pbrMetallicRoughness": {
        "baseColorTexture": {
          "index": 3
        },
        "metallicFactor": 0.0
      }
    },
    {
      "doubleSided": true,
      "extensions": {
        "KHR_materials_unlit": {}
      },
      "name": "Crank",
      "pbrMetallicRoughness": {
        "baseColorTexture": {
          "index": 4
        },
        "metallicFactor": 0.0
      }
    },
    {
      "doubleSided": true,
      "extensions": {
        "KHR_materials_unlit": {}
      },
      "name": "FloppyRed",
      "pbrMetallicRoughness": {
        "baseColorTexture": {
          "index": 5
        },
        "metallicFactor": 0.0
      }
    },
    {
      "doubleSided": true,
      "extensions": {
        "KHR_materials_unlit": {}
      },
      "name": "GemRed",
      "pbrMetallicRoughness": {
        "baseColorTexture": {
          "index": 6
        },
        "metallicFactor": 0.0
      }
    },
    {
      "doubleSided": true,
      "extensions": {
        "KHR_materials_unlit": {}
      },
      "name": "ZippoChrome",
      "pbrMetallicRoughness": {
        "baseColorTexture": {
          "index": 7
        },
        "metallicFactor": 0.0
      }
    },
    {
      "doubleSided": true,
      "extensions": {
        "KHR_materials_unlit": {}
      },
      "name": "SmallKey",
      "pbrMetallicRoughness": {
        "baseColorTexture": {
          "index": 8
        },
        "metallicFactor": 0.0
      }
    },
    {
      "doubleSided": true,
      "extensions": {
        "KHR_materials_unlit": {}
      },
      "name": "USBKeyMetal",
      "pbrMetallicRoughness": {
        "baseColorTexture": {
          "index": 9
        },
        "metallicFactor": 0.0
      }
    },
    {
      "doubleSided": true,
      "extensions": {
        "KHR_materials_unlit": {}
      },
      "name": "Valve",
      "pbrMetallicRoughness": {
        "baseColorTexture": {
          "index": 10
        },
        "metallicFactor": 0.0
      }
    },
    {
      "doubleSided": true,
      "extensions": {
        "KHR_materials_unlit": {}
      },
      "name": "FloppyBlue",
      "pbrMetallicRoughness": {
        "baseColorTexture": {
          "index": 11
        },
        "metallicFactor": 0.0
      }
    },
    {
      "doubleSided": true,
      "extensions": {
        "KHR_materials_unlit": {}
      },
      "name": "FloppyYellow",
      "pbrMetallicRoughness": {
        "baseColorTexture": {
          "index": 12
        },
        "metallicFactor": 0.0
      }
    },
    {
      "doubleSided": true,
      "extensions": {
        "KHR_materials_unlit": {}
      },
      "name": "GemBlue",
      "pbrMetallicRoughness": {
        "baseColorTexture": {
          "index": 13
        },
        "metallicFactor": 0.0
      }
    },
    {
      "doubleSided": true,
      "extensions": {
        "KHR_materials_unlit": {}
      },
      "name": "GemYellow",
      "pbrMetallicRoughness": {
        "baseColorTexture": {
          "index": 14
        },
        "metallicFactor": 0.0
      }
    },
    {
      "doubleSided": true,
      "extensions": {
        "KHR_materials_unlit": {}
      },
      "name": "GemGreen",
      "pbrMetallicRoughness": {
        "baseColorTexture": {
          "index": 15
        },
        "metallicFactor": 0.0
      }
    },
    {
      "doubleSided": true,
      "extensions": {
        "KHR_materials_unlit": {}
      },
      "name": "ZippoBrass",
      "pbrMetallicRoughness": {
        "baseColorTexture": {
          "index": 16
        },
        "metallicFactor": 0.0
      }
    },
    {
      "doubleSided": true,
      "extensions": {
        "KHR_materials_unlit": {}
      },
      "name": "ZippoFlowers",
      "pbrMetallicRoughness": {
        "baseColorTexture": {
          "index": 17
        },
        "metallicFactor": 0.0
      }
    },
    {
      "doubleSided": true,
      "extensions": {
        "KHR_materials_unlit": {}
      },
      "name": "CardRed",
      "pbrMetallicRoughness": {
        "baseColorTexture": {
          "index": 18
        },
        "metallicFactor": 0.0
      }
    },
    {
      "doubleSided": true,
      "extensions": {
        "KHR_materials_unlit": {}
      },
      "name": "CardYellow",
      "pbrMetallicRoughness": {
        "baseColorTexture": {
          "index": 19
        },
        "metallicFactor": 0.0
      }
    },
    {
      "doubleSided": true,
      "extensions": {
        "KHR_materials_unlit": {}
      },
      "name": "CardSecurity",
      "pbrMetallicRoughness": {
        "baseColorTexture": {
          "index": 20
        },
        "metallicFactor": 0.0
      }
    },
    {
      "doubleSided": true,
      "extensions": {
        "KHR_materials_unlit": {}
      },
      "name": "USBKeyMetalBlue",
      "pbrMetallicRoughness": {
        "baseColorTexture": {
          "index": 21
        },
        "metallicFactor": 0.0
      }
    },
    {
      "doubleSided": true,
      "extensions": {
        "KHR_materials_unlit": {}
      },
      "name": "USBKeyRed",
      "pbrMetallicRoughness": {
        "baseColorTexture": {
          "index": 22
        },
        "metallicFactor": 0.0
      }
    },
    {
      "doubleSided": true,
      "extensions": {
        "KHR_materials_unlit": {}
      },
      "name": "USBKeyYellow",
      "pbrMetallicRoughness": {
        "baseColorTexture": {
          "index": 23
        },
        "metallicFactor": 0.0
      }
    }
  ],
  "meshes": [
    {
      "name": "Object_0",
      "primitives": [
        {
          "attributes": {
            "NORMAL": 1,
            "POSITION": 0,
            "TEXCOORD_0": 2
          },
          "indices": 3,
          "material": 0,
          "mode": 4
        }
      ]
    },
    {
      "name": "Object_1",
      "primitives": [
        {
          "attributes": {
            "NORMAL": 5,
            "POSITION": 4,
            "TEXCOORD_0": 6
          },
          "indices": 7,
          "material": 1,
          "mode": 4
        }
      ]
    },
    {
      "name": "Object_2",
      "primitives": [
        {
          "attributes": {
            "NORMAL": 9,
            "POSITION": 8,
            "TEXCOORD_0": 10
          },
          "indices": 11,
          "material": 2,
          "mode": 4
        }
      ]
    },
    {
      "name": "Object_3",
      "primitives": [
        {
          "attributes": {
            "NORMAL": 13,
            "POSITION": 12,
            "TEXCOORD_0": 14
          },
          "indices": 15,
          "material": 3,
          "mode": 4
        }
      ]
    },
    {
      "name": "Object_4",
      "primitives": [
        {
          "attributes": {
            "NORMAL": 17,
            "POSITION": 16,
            "TEXCOORD_0": 18
          },
          "indices": 19,
          "material": 4,
          "mode": 4
        }
      ]
    },
    {
      "name": "Object_5",
      "primitives": [
        {
          "attributes": {
            "NORMAL": 21,
            "POSITION": 20,
            "TEXCOORD_0": 22
          },
          "indices": 23,
          "material": 5,
          "mode": 4
        }
      ]
    },
    {
      "name": "Object_6",
      "primitives": [
        {
          "attributes": {
            "NORMAL": 25,
            "POSITION": 24,
            "TEXCOORD_0": 26
          },
          "indices": 27,
          "material": 6,
          "mode": 4
        }
      ]
    },
    {
      "name": "Object_7",
      "primitives": [
        {
          "attributes": {
            "NORMAL": 29,
            "POSITION": 28,
            "TEXCOORD_0": 30
          },
          "indices": 31,
          "material": 7,
          "mode": 4
        }
      ]
    },
    {
      "name": "Object_8",
      "primitives": [
        {
          "attributes": {
            "NORMAL": 33,
            "POSITION": 32,
            "TEXCOORD_0": 34
          },
          "indices": 35,
          "material": 8,
          "mode": 4
        }
      ]
    },
    {
      "name": "Object_9",
      "primitives": [
        {
          "attributes": {
            "NORMAL": 37,
            "POSITION": 36,
            "TEXCOORD_0": 38
          },
          "indices": 39,
          "material": 9,
          "mode": 4
        }
      ]
    },
    {
      "name": "Object_10",
      "primitives": [
        {
          "attributes": {
            "NORMAL": 41,
            "POSITION": 40,
            "TEXCOORD_0": 42
          },
          "indices": 43,
          "material": 10,
          "mode": 4
        }
      ]
    },
    {
      "name": "Object_11",
      "primitives": [
        {
          "attributes": {
            "NORMAL": 45,
            "POSITION": 44,
            "TEXCOORD_0": 46
          },
          "indices": 47,
          "material": 11,
          "mode": 4
        }
      ]
    },
    {
      "name": "Object_12",
      "primitives": [
        {
          "attributes": {
            "NORMAL": 49,
            "POSITION": 48,
            "TEXCOORD_0": 50
          },
          "indices": 51,
          "material": 12,
          "mode": 4
        }
      ]
    },
    {
      "name": "Object_13",
      "primitives": [
        {
          "attributes": {
            "NORMAL": 53,
            "POSITION": 52,
            "TEXCOORD_0": 54
          },
          "indices": 55,
          "material": 13,
          "mode": 4
        }
      ]
    },
    {
      "name": "Object_14",
      "primitives": [
        {
          "attributes": {
            "NORMAL": 57,
            "POSITION": 56,
            "TEXCOORD_0": 58
          },
          "indices": 59,
          "material": 14,
          "mode": 4
        }
      ]
    },
    {
      "name": "Object_15",
      "primitives": [
        {
          "attributes": {
            "NORMAL": 61,
            "POSITION": 60,
            "TEXCOORD_0": 62
          },
          "indices": 63,
          "material": 15,
          "mode": 4
        }
      ]
    },
    {
      "name": "Object_16",
      "primitives": [
        {
          "attributes": {
            "NORMAL": 65,
            "POSITION": 64,
            "TEXCOORD_0": 66
          },
          "indices": 67,
          "material": 16,
          "mode": 4
        }
      ]
    },
    {
      "name": "Object_17",
      "primitives": [
        {
          "attributes": {
            "NORMAL": 69,
            "POSITION": 68,
            "TEXCOORD_0": 70
          },
          "indices": 71,
          "material": 17,
          "mode": 4
        }
      ]
    },
    {
      "name": "Object_18",
      "primitives": [
        {
          "attributes": {
            "NORMAL": 73,
            "POSITION": 72,
            "TEXCOORD_0": 74
          },
          "indices": 75,
          "material": 18,
          "mode": 4
        }
      ]
    },
    {
      "name": "Object_19",
      "primitives": [
        {
          "attributes": {
            "NORMAL": 77,
            "POSITION": 76,
            "TEXCOORD_0": 78
          },
          "indices": 79,
          "material": 19,
          "mode": 4
        }
      ]
    },
    {
      "name": "Object_20",
      "primitives": [
        {
          "attributes": {
            "NORMAL": 81,
            "POSITION": 80,
            "TEXCOORD_0": 82
          },
          "indices": 83,
          "material": 20,
          "mode": 4
        }
      ]
    },
    {
      "name": "Object_21",
      "primitives": [
        {
          "attributes": {
            "NORMAL": 85,
            "POSITION": 84,
            "TEXCOORD_0": 86
          },
          "indices": 87,
          "material": 21,
          "mode": 4
        }
      ]
    },
    {
      "name": "Object_22",
      "primitives": [
        {
          "attributes": {
            "NORMAL": 89,
            "POSITION": 88,
            "TEXCOORD_0": 90
          },
          "indices": 91,
          "material": 22,
          "mode": 4
        }
      ]
    },
    {
      "name": "Object_23",
      "primitives": [
        {
          "attributes": {
            "NORMAL": 93,
            "POSITION": 92,
            "TEXCOORD_0": 94
          },
          "indices": 95,
          "material": 23,
          "mode": 4
        }
      ]
    }
  ],
  "nodes": [
    {
      "children": [
        1
      ],
      "matrix": [
        1.0,
        0.0,
        0.0,
        0.0,
        0.0,
        2.220446049250313e-16,
        -1.0,
        0.0,
        0.0,
        1.0,
        2.220446049250313e-16,
        0.0,
        0.0,
        0.0,
        0.0,
        1.0
      ],
      "name": "Sketchfab_model"
    },
    {
      "children": [
        2
      ],
      "name": "root"
    },
    {
      "children": [
        3,
        5,
        7,
        9,
        11,
        13,
        15,
        17,
        19,
        21,
        23,
        25,
        27,
        29,
        31,
        33,
        35,
        37,
        39,
        41,
        43,
        45,
        47,
        49
      ],
      "matrix": [
        1.0,
        0.0,
        0.0,
        0.0,
        0.0,
        2.220446049250313e-16,
        1.0,
        0.0,
        0.0,
        -1.0,
        2.220446049250313e-16,
        0.0,
        0.0,
        0.0,
        0.0,
        1.0
      ],
      "name": "GLTF_SceneRootNode"
    },
    {
      "children": [
        4
      ],
      "name": "GearLow_0"
    },
    {
      "mesh": 0,
      "name": "Object_4"
    },
    {
      "children": [
        6
      ],
      "matrix": [
        -0.9999801516853588,
        -0.0,
        -0.006300494847753888,
        0.0,
        0.0,
        1.0,
        -0.0,
        0.0,
        0.006300494847753888,
        0.0,
        -0.9999801516853588,
        0.0,
        0.0,
        0.0,
        -1.0,
        1.0
      ],
      "name": "BatteryAALow_1"
    },
    {
      "mesh": 1,
      "name": "Object_6"
    },
    {
      "children": [
        8
      ],
      "matrix": [
        -0.7338663231307212,
        0.0,
        0.6792939126582805,
        0.0,
        -0.0,
        1.0,
        0.0,
        0.0,
        -0.6792939126582805,
        -0.0,
        -0.7338663231307212,
        0.0,
        0.0,
        0.0,
        -2.0,
        1.0
      ],
      "name": "BatteryCLow_2"
    },
    {
      "mesh": 2,
      "name": "Object_8"
    },
    {
      "children": [
        10
      ],
      "matrix": [
        1.0,
        0.0,
        0.0,
        0.0,
        0.0,
        1.0,
        0.0,
        0.0,
        0.0,
        0.0,
        1.0,
        0.0,
        0.0,
        0.0,
        -3.0,
        1.0
      ],
      "name": "CardLow_3"
    },
    {
      "mesh": 3,
      "name": "Object_10"
    },
    {
      "children": [
        12
      ],
      "matrix": [
        1.0,
        0.0,
        0.0,
        0.0,
        0.0,
        1.0,
        0.0,
        0.0,
        0.0,
        0.0,
        1.0,
        0.0,
        0.0,
        0.0,
        -4.0,
        1.0
      ],
      "name": "CrankLow_4"
    },
    {
      "mesh": 4,
      "name": "Object_12"
    },
    {
      "children": [
        14
      ],
      "matrix": [
        1.0,
        0.0,
        0.0,
        0.0,
        0.0,
        1.0,
        0.0,
        0.0,
        0.0,
        0.0,
        1.0,
        0.0,
        0.0,
        0.0,
        -5.0,
        1.0
      ],
      "name": "Floppy_5"
    },
    {
      "mesh": 5,
      "name": "Object_14"
    },
    {
      "children": [
        16
      ],
      "matrix": [
        1.0,
        0.0,
        0.0,
        0.0,
        0.0,
        1.0,
        0.0,
        0.0,
        0.0,
        0.0,
        1.0,
        0.0,
        0.0,
        0.0,
        -6.0,
        1.0
      ],
      "name": "GemLow_6"
    },
    {
      "mesh": 6,
      "name": "Object_16"
    },
    {
      "children": [
        18
      ],
      "matrix": [
        1.0,
        0.0,
        0.0,
        0.0,
        0.0,
        1.0,
        0.0,
        0.0,
        0.0,
        0.0,
        1.0,
        0.0,
        0.0,
        0.0,
        -7.0,
        1.0
      ],
      "name": "ZippoLow_7"
    },
    {
      "mesh": 7,
      "name": "Object_18"
    },
    {
      "children": [
        20
      ],
      "matrix": [
        0.6000000238418579,
        0.0,
        0.0,
        0.0,
        0.0,
        0.6000000238418579,
        0.0,
        0.0,
        0.0,
        0.0,
        0.6000000238418579,
        0.0,
        0.0,
        0.0,
        -8.0,
        1.0
      ],
      "name": "SmallKeyLow_8"
    },
    {
      "mesh": 8,
      "name": "Object_20"
    },
    {
      "children": [
        22
      ],
      "matrix": [
        1.0,
        0.0,
        0.0,
        0.0,
        0.0,
        1.0,
        0.0,
        0.0,
        0.0,
        0.0,
        1.0,
        0.0,
        0.0,
        0.0,
        -9.0,
        1.0
      ],
      "name": "USBKeyLow_9"
    },
    {
      "mesh": 9,
      "name": "Object_22"
    },
    {
      "children": [
        24
      ],
      "matrix": [
        1.0,
        0.0,
        0.0,
        0.0,
        0.0,
        1.0,
        0.0,
        0.0,
        0.0,
        0.0,
        1.0,
        0.0,
        0.0,
        0.0,
        -10.0,
        1.0
      ],
      "name": "ValveLow_10"
    },
    {
      "mesh": 10,
      "name": "Object_24"
    },
    {
      "children": [
        26
      ],
      "matrix": [
        1.0,
        0.0,
        0.0,
        0.0,
        0.0,
        1.0,
        0.0,
        0.0,
        0.0,
        0.0,
        1.0,
        0.0,
        0.699999988079071,
        0.0,
        -5.0,
        1.0
      ],
      "name": "Floppy.001_11"
    },
    {
      "mesh": 11,
      "name": "Object_26"
    },
    {
      "children": [
        28
      ],
      "matrix": [
        1.0,
        0.0,
        0.0,
        0.0,
        0.0,
        1.0,
        0.0,
        0.0,
        0.0,
        0.0,
        1.0,
        0.0,
        1.399999976158142,
        0.0,
        -5.0,
        1.0
      ],
      "name": "Floppy.002_12"
    },
    {
      "mesh": 12,
      "name": "Object_28"
    },
    {
      "children": [
        30
      ],
      "matrix": [
        1.0,
        0.0,
        0.0,
        0.0,
        0.0,
        1.0,
        0.0,
        0.0,
        0.0,
        0.0,
        1.0,
        0.0,
        0.5,
        0.0,
        -6.0,
        1.0
      ],
      "name": "GemLow.001_13"
    },
    {
      "mesh": 13,
      "name": "Object_30"
    },
    {
      "children": [
        32
      ],
      "matrix": [
        1.0,
        0.0,
        0.0,
        0.0,
        0.0,
        1.0,
        0.0,
        0.0,
        0.0,
        0.0,
        1.0,
        0.0,
        1.0,
        0.0,
        -6.0,
        1.0
      ],
      "name": "GemLow.002_14"
    },
    {
      "mesh": 14,
      "name": "Object_32"
    },
    {
      "children": [
        34
      ],
      "matrix": [
        1.0,
        0.0,
        0.0,
        0.0,
        0.0,
        1.0,
        0.0,
        0.0,
        0.0,
        0.0,
        1.0,
        0.0,
        1.5,
        0.0,
        -6.0,
        1.0
      ],
      "name": "GemLow.003_15"
    },
    {
      "mesh": 15,
      "name": "Object_34"
    },
    {
      "children": [
        36
      ],
      "matrix": [
        1.0,
        0.0,
        0.0,
        0.0,
        0.0,
        1.0,
        0.0,
        0.0,
        0.0,
        0.0,
        1.0,
        0.0,
        0.4000000059604645,
        0.0,
        -7.0,
        1.0
      ],
      "name": "ZippoLow.001_16"
    },
    {
      "mesh": 16,
      "name": "Object_36"
    },
    {
      "children": [
        38
      ],
      "matrix": [
        1.0,
        0.0,
        0.0,
        0.0,
        0.0,
        1.0,
        0.0,
        0.0,
        0.0,
        0.0,
        1.0,
        0.0,
        0.800000011920929,
        0.0,
        -7.0,
        1.0
      ],
      "name": "ZippoLow.002_17"
    },
    {
      "mesh": 17,
      "name": "Object_38"
    },
    {
      "children": [
        40
      ],
      "matrix": [
        1.0,
        0.0,
        0.0,
        0.0,
        0.0,
        1.0,
        0.0,
        0.0,
        0.0,
        0.0,
        1.0,
        0.0,
        0.4000000059604645,
        0.0,
        -3.0,
        1.0
      ],
      "name": "CardLow.001_18"
    },
    {
      "mesh": 18,
      "name": "Object_40"
    },
    {
      "children": [
        42
      ],
      "matrix": [
        1.0,
        0.0,
        0.0,
        0.0,
        0.0,
        1.0,
        0.0,
        0.0,
        0.0,
        0.0,
        1.0,
        0.0,
        0.800000011920929,
        0.0,
        -3.0,
        1.0
      ],
      "name": "CardLow.002_19"
    },
    {
      "mesh": 19,
      "name": "Object_42"
    },
    {
      "children": [
        44
      ],
      "matrix": [
        1.0,
        0.0,
        0.0,
        0.0,
        0.0,
        1.0,
        0.0,
        0.0,
        0.0,
        0.0,
        1.0,
        0.0,
        1.2000000476837158,
        0.0,
        -3.0,
        1.0
      ],
      "name": "CardLow.003_20"
    },
    {
      "mesh": 20,
      "name": "Object_44"
    },
    {
      "children": [
        46
      ],
      "matrix": [
        1.0,
        0.0,
        0.0,
        0.0,
        0.0,
        1.0,
        0.0,
        0.0,
        0.0,
        0.0,
        1.0,
        0.0,
        0.5,
        0.0,
        -9.0,
        1.0
      ],
      "name": "USBKeyLow.001_21"
    },
    {
      "mesh": 21,
      "name": "Object_46"
    },
    {
      "children": [
        48
      ],
      "matrix": [
        1.0,
        0.0,
        0.0,
        0.0,
        0.0,
        1.0,
        0.0,
        0.0,
        0.0,
        0.0,
        1.0,
        0.0,
        1.0,
        0.0,
        -9.0,
        1.0
      ],
      "name": "USBKeyLow.002_22"
    },
    {
      "mesh": 22,
      "name": "Object_48"
    },
    {
      "children": [
        50
      ],
      "matrix": [
        1.0,
        0.0,
        0.0,
        0.0,
        0.0,
        1.0,
        0.0,
        0.0,
        0.0,
        0.0,
        1.0,
        0.0,
        1.5,
        0.0,
        -9.0,
        1.0
      ],
      "name": "USBKeyLow.003_23"
    },
    {
      "mesh": 23,
      "name": "Object_50"
    }
  ],
  "samplers": [
    {
      "magFilter": 9728,
      "minFilter": 9728,
      "wrapS": 10497,
      "wrapT": 10497
    },
    {
      "magFilter": 9729,
      "minFilter": 9987,
      "wrapS": 10497,
      "wrapT": 10497
    }
  ],
  "scene": 0,
  "scenes": [
    {
      "name": "Sketchfab_Scene",
      "nodes": [
        0
      ]
    }
  ],
  "textures": [
    {
      "sampler": 0,
      "source": 0
    },
    {
      "sampler": 0,
      "source": 1
    },
    {
      "sampler": 1,
      "source": 1
    },
    {
      "sampler": 0,
      "source": 2
    },
    {
      "sampler": 0,
      "source": 3
    },
    {
      "sampler": 0,
      "source": 4
    },
    {
      "sampler": 0,
      "source": 5
    },
    {
      "sampler": 0,
      "source": 6
    },
    {
      "sampler": 0,
      "source": 7
    },
    {
      "sampler": 0,
      "source": 8
    },
    {
      "sampler": 0,
      "source": 9
    },
    {
      "sampler": 0,
      "source": 10
    },
    {
      "sampler": 0,
      "source": 11
    },
    {
      "sampler": 0,
      "source": 12
    },
    {
      "sampler": 0,
      "source": 13
    },
    {
      "sampler": 1,
      "source": 14
    },
    {
      "sampler": 0,
      "source": 15
    },
    {
      "sampler": 0,
      "source": 16
    },
    {
      "sampler": 0,
      "source": 17
    },
    {
      "sampler": 0,
      "source": 18
    },
    {
      "sampler": 0,
      "source": 19
    },
    {
      "sampler": 0,
      "source": 20
    },
    {
      "sampler": 0,
      "source": 21
    },
    {
      "sampler": 0,
      "source": 22
    }
  ]
}
